%TF.GenerationSoftware,KiCad,Pcbnew,5.1.9-73d0e3b20d~88~ubuntu20.04.1*%
%TF.CreationDate,2021-06-02T20:16:19+09:00*%
%TF.ProjectId,BAT-JST7-Straight-Con-PCB,4241542d-4a53-4543-972d-537472616967,rev?*%
%TF.SameCoordinates,Original*%
%TF.FileFunction,Legend,Top*%
%TF.FilePolarity,Positive*%
%FSLAX46Y46*%
G04 Gerber Fmt 4.6, Leading zero omitted, Abs format (unit mm)*
G04 Created by KiCad (PCBNEW 5.1.9-73d0e3b20d~88~ubuntu20.04.1) date 2021-06-02 20:16:19*
%MOMM*%
%LPD*%
G01*
G04 APERTURE LIST*
%ADD10C,0.010000*%
%ADD11C,0.120000*%
%ADD12C,0.150000*%
G04 APERTURE END LIST*
D10*
%TO.C,G\u002A\u002A\u002A*%
G36*
X141698745Y-94346418D02*
G01*
X141705147Y-94317408D01*
X141716146Y-94290734D01*
X141717785Y-94287306D01*
X141719187Y-94284161D01*
X141720483Y-94281206D01*
X141721805Y-94278347D01*
X141723284Y-94275489D01*
X141725052Y-94272538D01*
X141727239Y-94269400D01*
X141729979Y-94265981D01*
X141733401Y-94262187D01*
X141737638Y-94257924D01*
X141742821Y-94253097D01*
X141749081Y-94247612D01*
X141756550Y-94241376D01*
X141765360Y-94234294D01*
X141775642Y-94226271D01*
X141787528Y-94217215D01*
X141801148Y-94207030D01*
X141816635Y-94195623D01*
X141834119Y-94182899D01*
X141853734Y-94168765D01*
X141875609Y-94153125D01*
X141899876Y-94135887D01*
X141926667Y-94116955D01*
X141956114Y-94096236D01*
X141988347Y-94073636D01*
X142023499Y-94049060D01*
X142061701Y-94022414D01*
X142103084Y-93993605D01*
X142147779Y-93962537D01*
X142195919Y-93929118D01*
X142247635Y-93893252D01*
X142303058Y-93854846D01*
X142362320Y-93813805D01*
X142425552Y-93770035D01*
X142492885Y-93723443D01*
X142564452Y-93673934D01*
X142640384Y-93621413D01*
X142720811Y-93565788D01*
X142805866Y-93506962D01*
X142895681Y-93444844D01*
X142952664Y-93405430D01*
X143028903Y-93352704D01*
X143103904Y-93300850D01*
X143177516Y-93249972D01*
X143249582Y-93200178D01*
X143319950Y-93151573D01*
X143388465Y-93104263D01*
X143454973Y-93058355D01*
X143519321Y-93013954D01*
X143581353Y-92971166D01*
X143640917Y-92930098D01*
X143697858Y-92890855D01*
X143752021Y-92853544D01*
X143803254Y-92818270D01*
X143851402Y-92785140D01*
X143896311Y-92754259D01*
X143937826Y-92725734D01*
X143975795Y-92699671D01*
X144010063Y-92676176D01*
X144040475Y-92655354D01*
X144066878Y-92637312D01*
X144089118Y-92622156D01*
X144107041Y-92609993D01*
X144120492Y-92600927D01*
X144129319Y-92595065D01*
X144133365Y-92592513D01*
X144133613Y-92592404D01*
X144140342Y-92594286D01*
X144142777Y-92596033D01*
X144143042Y-92597551D01*
X144143296Y-92601639D01*
X144143538Y-92608413D01*
X144143768Y-92617988D01*
X144143986Y-92630480D01*
X144144193Y-92646005D01*
X144144390Y-92664679D01*
X144144575Y-92686618D01*
X144144750Y-92711937D01*
X144144914Y-92740753D01*
X144145068Y-92773180D01*
X144145213Y-92809336D01*
X144145348Y-92849336D01*
X144145473Y-92893296D01*
X144145590Y-92941331D01*
X144145697Y-92993557D01*
X144145796Y-93050091D01*
X144145887Y-93111048D01*
X144145969Y-93176543D01*
X144146043Y-93246694D01*
X144146110Y-93321615D01*
X144146169Y-93401422D01*
X144146221Y-93486232D01*
X144146266Y-93576159D01*
X144146304Y-93671321D01*
X144146336Y-93771832D01*
X144146361Y-93877809D01*
X144146381Y-93989367D01*
X144146394Y-94106623D01*
X144146402Y-94229692D01*
X144146405Y-94358689D01*
X144146405Y-96124214D01*
X144138789Y-96124214D01*
X144137743Y-96123905D01*
X144135754Y-96122929D01*
X144132713Y-96121213D01*
X144128513Y-96118682D01*
X144123047Y-96115264D01*
X144116206Y-96110884D01*
X144107884Y-96105470D01*
X144097972Y-96098947D01*
X144086364Y-96091243D01*
X144072950Y-96082283D01*
X144057625Y-96071994D01*
X144040280Y-96060303D01*
X144020808Y-96047135D01*
X143999101Y-96032418D01*
X143975052Y-96016077D01*
X143948552Y-95998040D01*
X143919495Y-95978232D01*
X143887773Y-95956580D01*
X143853278Y-95933011D01*
X143815903Y-95907451D01*
X143775540Y-95879826D01*
X143732081Y-95850063D01*
X143685420Y-95818088D01*
X143635447Y-95783829D01*
X143582057Y-95747210D01*
X143525140Y-95708159D01*
X143464591Y-95666601D01*
X143400300Y-95622465D01*
X143332161Y-95575675D01*
X143260065Y-95526159D01*
X143183906Y-95473842D01*
X143103575Y-95418652D01*
X143018966Y-95360514D01*
X142929970Y-95299356D01*
X142836480Y-95235103D01*
X142738388Y-95167682D01*
X142635587Y-95097020D01*
X142527970Y-95023042D01*
X142468191Y-94981948D01*
X142396801Y-94932875D01*
X142330218Y-94887110D01*
X142268269Y-94844527D01*
X142210783Y-94805000D01*
X142157587Y-94768404D01*
X142108508Y-94734613D01*
X142063375Y-94703503D01*
X142022015Y-94674946D01*
X141984256Y-94648819D01*
X141949926Y-94624995D01*
X141918853Y-94603349D01*
X141890864Y-94583756D01*
X141865787Y-94566090D01*
X141843451Y-94550225D01*
X141823682Y-94536037D01*
X141806308Y-94523398D01*
X141791158Y-94512185D01*
X141778058Y-94502272D01*
X141766838Y-94493533D01*
X141757324Y-94485842D01*
X141749345Y-94479075D01*
X141742727Y-94473105D01*
X141737300Y-94467807D01*
X141732890Y-94463056D01*
X141729326Y-94458727D01*
X141726435Y-94454693D01*
X141724045Y-94450829D01*
X141721983Y-94447010D01*
X141720079Y-94443110D01*
X141718158Y-94439004D01*
X141716050Y-94434567D01*
X141715571Y-94433589D01*
X141703958Y-94404232D01*
X141698349Y-94375267D01*
X141698745Y-94346418D01*
G37*
X141698745Y-94346418D02*
X141705147Y-94317408D01*
X141716146Y-94290734D01*
X141717785Y-94287306D01*
X141719187Y-94284161D01*
X141720483Y-94281206D01*
X141721805Y-94278347D01*
X141723284Y-94275489D01*
X141725052Y-94272538D01*
X141727239Y-94269400D01*
X141729979Y-94265981D01*
X141733401Y-94262187D01*
X141737638Y-94257924D01*
X141742821Y-94253097D01*
X141749081Y-94247612D01*
X141756550Y-94241376D01*
X141765360Y-94234294D01*
X141775642Y-94226271D01*
X141787528Y-94217215D01*
X141801148Y-94207030D01*
X141816635Y-94195623D01*
X141834119Y-94182899D01*
X141853734Y-94168765D01*
X141875609Y-94153125D01*
X141899876Y-94135887D01*
X141926667Y-94116955D01*
X141956114Y-94096236D01*
X141988347Y-94073636D01*
X142023499Y-94049060D01*
X142061701Y-94022414D01*
X142103084Y-93993605D01*
X142147779Y-93962537D01*
X142195919Y-93929118D01*
X142247635Y-93893252D01*
X142303058Y-93854846D01*
X142362320Y-93813805D01*
X142425552Y-93770035D01*
X142492885Y-93723443D01*
X142564452Y-93673934D01*
X142640384Y-93621413D01*
X142720811Y-93565788D01*
X142805866Y-93506962D01*
X142895681Y-93444844D01*
X142952664Y-93405430D01*
X143028903Y-93352704D01*
X143103904Y-93300850D01*
X143177516Y-93249972D01*
X143249582Y-93200178D01*
X143319950Y-93151573D01*
X143388465Y-93104263D01*
X143454973Y-93058355D01*
X143519321Y-93013954D01*
X143581353Y-92971166D01*
X143640917Y-92930098D01*
X143697858Y-92890855D01*
X143752021Y-92853544D01*
X143803254Y-92818270D01*
X143851402Y-92785140D01*
X143896311Y-92754259D01*
X143937826Y-92725734D01*
X143975795Y-92699671D01*
X144010063Y-92676176D01*
X144040475Y-92655354D01*
X144066878Y-92637312D01*
X144089118Y-92622156D01*
X144107041Y-92609993D01*
X144120492Y-92600927D01*
X144129319Y-92595065D01*
X144133365Y-92592513D01*
X144133613Y-92592404D01*
X144140342Y-92594286D01*
X144142777Y-92596033D01*
X144143042Y-92597551D01*
X144143296Y-92601639D01*
X144143538Y-92608413D01*
X144143768Y-92617988D01*
X144143986Y-92630480D01*
X144144193Y-92646005D01*
X144144390Y-92664679D01*
X144144575Y-92686618D01*
X144144750Y-92711937D01*
X144144914Y-92740753D01*
X144145068Y-92773180D01*
X144145213Y-92809336D01*
X144145348Y-92849336D01*
X144145473Y-92893296D01*
X144145590Y-92941331D01*
X144145697Y-92993557D01*
X144145796Y-93050091D01*
X144145887Y-93111048D01*
X144145969Y-93176543D01*
X144146043Y-93246694D01*
X144146110Y-93321615D01*
X144146169Y-93401422D01*
X144146221Y-93486232D01*
X144146266Y-93576159D01*
X144146304Y-93671321D01*
X144146336Y-93771832D01*
X144146361Y-93877809D01*
X144146381Y-93989367D01*
X144146394Y-94106623D01*
X144146402Y-94229692D01*
X144146405Y-94358689D01*
X144146405Y-96124214D01*
X144138789Y-96124214D01*
X144137743Y-96123905D01*
X144135754Y-96122929D01*
X144132713Y-96121213D01*
X144128513Y-96118682D01*
X144123047Y-96115264D01*
X144116206Y-96110884D01*
X144107884Y-96105470D01*
X144097972Y-96098947D01*
X144086364Y-96091243D01*
X144072950Y-96082283D01*
X144057625Y-96071994D01*
X144040280Y-96060303D01*
X144020808Y-96047135D01*
X143999101Y-96032418D01*
X143975052Y-96016077D01*
X143948552Y-95998040D01*
X143919495Y-95978232D01*
X143887773Y-95956580D01*
X143853278Y-95933011D01*
X143815903Y-95907451D01*
X143775540Y-95879826D01*
X143732081Y-95850063D01*
X143685420Y-95818088D01*
X143635447Y-95783829D01*
X143582057Y-95747210D01*
X143525140Y-95708159D01*
X143464591Y-95666601D01*
X143400300Y-95622465D01*
X143332161Y-95575675D01*
X143260065Y-95526159D01*
X143183906Y-95473842D01*
X143103575Y-95418652D01*
X143018966Y-95360514D01*
X142929970Y-95299356D01*
X142836480Y-95235103D01*
X142738388Y-95167682D01*
X142635587Y-95097020D01*
X142527970Y-95023042D01*
X142468191Y-94981948D01*
X142396801Y-94932875D01*
X142330218Y-94887110D01*
X142268269Y-94844527D01*
X142210783Y-94805000D01*
X142157587Y-94768404D01*
X142108508Y-94734613D01*
X142063375Y-94703503D01*
X142022015Y-94674946D01*
X141984256Y-94648819D01*
X141949926Y-94624995D01*
X141918853Y-94603349D01*
X141890864Y-94583756D01*
X141865787Y-94566090D01*
X141843451Y-94550225D01*
X141823682Y-94536037D01*
X141806308Y-94523398D01*
X141791158Y-94512185D01*
X141778058Y-94502272D01*
X141766838Y-94493533D01*
X141757324Y-94485842D01*
X141749345Y-94479075D01*
X141742727Y-94473105D01*
X141737300Y-94467807D01*
X141732890Y-94463056D01*
X141729326Y-94458727D01*
X141726435Y-94454693D01*
X141724045Y-94450829D01*
X141721983Y-94447010D01*
X141720079Y-94443110D01*
X141718158Y-94439004D01*
X141716050Y-94434567D01*
X141715571Y-94433589D01*
X141703958Y-94404232D01*
X141698349Y-94375267D01*
X141698745Y-94346418D01*
G36*
X145498516Y-88774330D02*
G01*
X145498619Y-88749142D01*
X145499560Y-88551083D01*
X145506785Y-88535094D01*
X145514480Y-88522057D01*
X145524644Y-88509912D01*
X145527436Y-88507287D01*
X145532177Y-88503113D01*
X145536536Y-88499519D01*
X145540982Y-88496464D01*
X145545982Y-88493906D01*
X145552005Y-88491805D01*
X145559517Y-88490119D01*
X145568988Y-88488806D01*
X145580885Y-88487826D01*
X145595675Y-88487136D01*
X145613828Y-88486696D01*
X145635810Y-88486464D01*
X145662090Y-88486399D01*
X145693136Y-88486459D01*
X145729415Y-88486603D01*
X145759896Y-88486739D01*
X145950108Y-88487583D01*
X145966505Y-88496654D01*
X145977150Y-88503763D01*
X145986893Y-88512286D01*
X145991482Y-88517560D01*
X145994649Y-88521956D01*
X145997412Y-88526103D01*
X145999797Y-88530426D01*
X146001833Y-88535350D01*
X146003546Y-88541299D01*
X146004966Y-88548699D01*
X146006119Y-88557975D01*
X146007033Y-88569551D01*
X146007736Y-88583853D01*
X146008255Y-88601304D01*
X146008619Y-88622331D01*
X146008855Y-88647358D01*
X146008990Y-88676810D01*
X146009053Y-88711112D01*
X146009071Y-88750688D01*
X146009072Y-88787324D01*
X146009117Y-88829624D01*
X146009248Y-88869779D01*
X146009459Y-88907317D01*
X146009746Y-88941770D01*
X146010101Y-88972664D01*
X146010520Y-88999531D01*
X146010996Y-89021898D01*
X146011525Y-89039295D01*
X146012100Y-89051252D01*
X146012274Y-89053627D01*
X146021328Y-89131228D01*
X146035372Y-89205419D01*
X146054411Y-89276214D01*
X146078451Y-89343629D01*
X146107498Y-89407677D01*
X146141556Y-89468373D01*
X146180632Y-89525731D01*
X146198634Y-89548944D01*
X146215222Y-89568355D01*
X146235230Y-89589864D01*
X146257342Y-89612193D01*
X146280241Y-89634061D01*
X146302610Y-89654191D01*
X146323133Y-89671304D01*
X146330406Y-89676925D01*
X146386052Y-89715363D01*
X146444648Y-89749182D01*
X146506458Y-89778483D01*
X146571748Y-89803368D01*
X146640782Y-89823939D01*
X146713825Y-89840296D01*
X146786191Y-89851897D01*
X146789367Y-89852289D01*
X146792913Y-89852663D01*
X146796980Y-89853018D01*
X146801723Y-89853355D01*
X146807295Y-89853676D01*
X146813848Y-89853980D01*
X146821536Y-89854268D01*
X146830512Y-89854541D01*
X146840930Y-89854800D01*
X146852942Y-89855045D01*
X146866701Y-89855276D01*
X146882361Y-89855495D01*
X146900076Y-89855702D01*
X146919997Y-89855898D01*
X146942278Y-89856083D01*
X146967073Y-89856258D01*
X146994535Y-89856423D01*
X147024816Y-89856579D01*
X147058071Y-89856728D01*
X147094451Y-89856869D01*
X147134111Y-89857003D01*
X147177203Y-89857130D01*
X147223881Y-89857252D01*
X147274298Y-89857369D01*
X147328607Y-89857482D01*
X147386960Y-89857590D01*
X147449513Y-89857696D01*
X147516416Y-89857799D01*
X147587825Y-89857901D01*
X147663891Y-89858001D01*
X147744768Y-89858100D01*
X147830610Y-89858200D01*
X147921568Y-89858300D01*
X148017798Y-89858402D01*
X148119451Y-89858505D01*
X148226681Y-89858611D01*
X148339641Y-89858720D01*
X148458484Y-89858834D01*
X148467429Y-89858842D01*
X150107846Y-89860392D01*
X150125094Y-89868862D01*
X150142136Y-89879486D01*
X150155131Y-89893147D01*
X150165020Y-89910285D01*
X150166339Y-89913272D01*
X150167462Y-89916437D01*
X150168407Y-89920270D01*
X150169190Y-89925258D01*
X150169830Y-89931888D01*
X150170343Y-89940649D01*
X150170746Y-89952028D01*
X150171056Y-89966514D01*
X150171291Y-89984594D01*
X150171468Y-90006755D01*
X150171603Y-90033487D01*
X150171715Y-90065275D01*
X150171819Y-90102609D01*
X150171822Y-90103809D01*
X150171867Y-90136697D01*
X150171829Y-90168129D01*
X150171713Y-90197522D01*
X150171527Y-90224294D01*
X150171275Y-90247862D01*
X150170964Y-90267643D01*
X150170600Y-90283056D01*
X150170190Y-90293518D01*
X150169793Y-90298172D01*
X150163304Y-90318656D01*
X150151783Y-90336407D01*
X150135915Y-90350676D01*
X150116381Y-90360713D01*
X150111338Y-90362375D01*
X150109716Y-90362708D01*
X150107053Y-90363024D01*
X150103200Y-90363325D01*
X150098010Y-90363609D01*
X150091334Y-90363879D01*
X150083025Y-90364133D01*
X150072935Y-90364373D01*
X150060916Y-90364599D01*
X150046820Y-90364811D01*
X150030500Y-90365010D01*
X150011808Y-90365196D01*
X149990595Y-90365370D01*
X149966714Y-90365531D01*
X149940017Y-90365681D01*
X149910357Y-90365820D01*
X149877585Y-90365948D01*
X149841553Y-90366066D01*
X149802114Y-90366173D01*
X149759121Y-90366271D01*
X149712424Y-90366360D01*
X149661876Y-90366440D01*
X149607330Y-90366511D01*
X149548638Y-90366575D01*
X149485651Y-90366631D01*
X149418222Y-90366680D01*
X149346203Y-90366722D01*
X149269446Y-90366758D01*
X149187804Y-90366788D01*
X149101128Y-90366813D01*
X149009271Y-90366832D01*
X148912085Y-90366847D01*
X148809421Y-90366857D01*
X148701133Y-90366863D01*
X148587072Y-90366866D01*
X148484267Y-90366867D01*
X148346008Y-90366859D01*
X148213722Y-90366840D01*
X148087414Y-90366809D01*
X147967086Y-90366766D01*
X147852741Y-90366710D01*
X147744385Y-90366643D01*
X147642018Y-90366564D01*
X147545646Y-90366473D01*
X147455271Y-90366370D01*
X147370897Y-90366255D01*
X147292527Y-90366128D01*
X147220165Y-90365989D01*
X147153814Y-90365838D01*
X147093477Y-90365675D01*
X147039159Y-90365500D01*
X146990861Y-90365314D01*
X146948588Y-90365115D01*
X146912343Y-90364905D01*
X146882129Y-90364682D01*
X146857950Y-90364448D01*
X146839809Y-90364202D01*
X146827710Y-90363944D01*
X146822477Y-90363735D01*
X146724270Y-90354912D01*
X146629127Y-90340893D01*
X146536977Y-90321657D01*
X146447750Y-90297180D01*
X146361375Y-90267440D01*
X146277782Y-90232414D01*
X146196901Y-90192080D01*
X146118661Y-90146413D01*
X146087691Y-90126385D01*
X146016533Y-90075441D01*
X145949379Y-90020046D01*
X145886359Y-89960397D01*
X145827607Y-89896691D01*
X145773254Y-89829122D01*
X145723433Y-89757887D01*
X145678276Y-89683183D01*
X145637914Y-89605205D01*
X145602482Y-89524150D01*
X145572109Y-89440214D01*
X145546930Y-89353594D01*
X145535972Y-89307731D01*
X145529670Y-89278200D01*
X145524060Y-89249363D01*
X145519110Y-89220716D01*
X145514784Y-89191756D01*
X145511050Y-89161980D01*
X145507874Y-89130887D01*
X145505222Y-89097971D01*
X145503061Y-89062732D01*
X145501357Y-89024666D01*
X145500077Y-88983270D01*
X145499186Y-88938041D01*
X145498651Y-88888477D01*
X145498439Y-88834074D01*
X145498516Y-88774330D01*
G37*
X145498516Y-88774330D02*
X145498619Y-88749142D01*
X145499560Y-88551083D01*
X145506785Y-88535094D01*
X145514480Y-88522057D01*
X145524644Y-88509912D01*
X145527436Y-88507287D01*
X145532177Y-88503113D01*
X145536536Y-88499519D01*
X145540982Y-88496464D01*
X145545982Y-88493906D01*
X145552005Y-88491805D01*
X145559517Y-88490119D01*
X145568988Y-88488806D01*
X145580885Y-88487826D01*
X145595675Y-88487136D01*
X145613828Y-88486696D01*
X145635810Y-88486464D01*
X145662090Y-88486399D01*
X145693136Y-88486459D01*
X145729415Y-88486603D01*
X145759896Y-88486739D01*
X145950108Y-88487583D01*
X145966505Y-88496654D01*
X145977150Y-88503763D01*
X145986893Y-88512286D01*
X145991482Y-88517560D01*
X145994649Y-88521956D01*
X145997412Y-88526103D01*
X145999797Y-88530426D01*
X146001833Y-88535350D01*
X146003546Y-88541299D01*
X146004966Y-88548699D01*
X146006119Y-88557975D01*
X146007033Y-88569551D01*
X146007736Y-88583853D01*
X146008255Y-88601304D01*
X146008619Y-88622331D01*
X146008855Y-88647358D01*
X146008990Y-88676810D01*
X146009053Y-88711112D01*
X146009071Y-88750688D01*
X146009072Y-88787324D01*
X146009117Y-88829624D01*
X146009248Y-88869779D01*
X146009459Y-88907317D01*
X146009746Y-88941770D01*
X146010101Y-88972664D01*
X146010520Y-88999531D01*
X146010996Y-89021898D01*
X146011525Y-89039295D01*
X146012100Y-89051252D01*
X146012274Y-89053627D01*
X146021328Y-89131228D01*
X146035372Y-89205419D01*
X146054411Y-89276214D01*
X146078451Y-89343629D01*
X146107498Y-89407677D01*
X146141556Y-89468373D01*
X146180632Y-89525731D01*
X146198634Y-89548944D01*
X146215222Y-89568355D01*
X146235230Y-89589864D01*
X146257342Y-89612193D01*
X146280241Y-89634061D01*
X146302610Y-89654191D01*
X146323133Y-89671304D01*
X146330406Y-89676925D01*
X146386052Y-89715363D01*
X146444648Y-89749182D01*
X146506458Y-89778483D01*
X146571748Y-89803368D01*
X146640782Y-89823939D01*
X146713825Y-89840296D01*
X146786191Y-89851897D01*
X146789367Y-89852289D01*
X146792913Y-89852663D01*
X146796980Y-89853018D01*
X146801723Y-89853355D01*
X146807295Y-89853676D01*
X146813848Y-89853980D01*
X146821536Y-89854268D01*
X146830512Y-89854541D01*
X146840930Y-89854800D01*
X146852942Y-89855045D01*
X146866701Y-89855276D01*
X146882361Y-89855495D01*
X146900076Y-89855702D01*
X146919997Y-89855898D01*
X146942278Y-89856083D01*
X146967073Y-89856258D01*
X146994535Y-89856423D01*
X147024816Y-89856579D01*
X147058071Y-89856728D01*
X147094451Y-89856869D01*
X147134111Y-89857003D01*
X147177203Y-89857130D01*
X147223881Y-89857252D01*
X147274298Y-89857369D01*
X147328607Y-89857482D01*
X147386960Y-89857590D01*
X147449513Y-89857696D01*
X147516416Y-89857799D01*
X147587825Y-89857901D01*
X147663891Y-89858001D01*
X147744768Y-89858100D01*
X147830610Y-89858200D01*
X147921568Y-89858300D01*
X148017798Y-89858402D01*
X148119451Y-89858505D01*
X148226681Y-89858611D01*
X148339641Y-89858720D01*
X148458484Y-89858834D01*
X148467429Y-89858842D01*
X150107846Y-89860392D01*
X150125094Y-89868862D01*
X150142136Y-89879486D01*
X150155131Y-89893147D01*
X150165020Y-89910285D01*
X150166339Y-89913272D01*
X150167462Y-89916437D01*
X150168407Y-89920270D01*
X150169190Y-89925258D01*
X150169830Y-89931888D01*
X150170343Y-89940649D01*
X150170746Y-89952028D01*
X150171056Y-89966514D01*
X150171291Y-89984594D01*
X150171468Y-90006755D01*
X150171603Y-90033487D01*
X150171715Y-90065275D01*
X150171819Y-90102609D01*
X150171822Y-90103809D01*
X150171867Y-90136697D01*
X150171829Y-90168129D01*
X150171713Y-90197522D01*
X150171527Y-90224294D01*
X150171275Y-90247862D01*
X150170964Y-90267643D01*
X150170600Y-90283056D01*
X150170190Y-90293518D01*
X150169793Y-90298172D01*
X150163304Y-90318656D01*
X150151783Y-90336407D01*
X150135915Y-90350676D01*
X150116381Y-90360713D01*
X150111338Y-90362375D01*
X150109716Y-90362708D01*
X150107053Y-90363024D01*
X150103200Y-90363325D01*
X150098010Y-90363609D01*
X150091334Y-90363879D01*
X150083025Y-90364133D01*
X150072935Y-90364373D01*
X150060916Y-90364599D01*
X150046820Y-90364811D01*
X150030500Y-90365010D01*
X150011808Y-90365196D01*
X149990595Y-90365370D01*
X149966714Y-90365531D01*
X149940017Y-90365681D01*
X149910357Y-90365820D01*
X149877585Y-90365948D01*
X149841553Y-90366066D01*
X149802114Y-90366173D01*
X149759121Y-90366271D01*
X149712424Y-90366360D01*
X149661876Y-90366440D01*
X149607330Y-90366511D01*
X149548638Y-90366575D01*
X149485651Y-90366631D01*
X149418222Y-90366680D01*
X149346203Y-90366722D01*
X149269446Y-90366758D01*
X149187804Y-90366788D01*
X149101128Y-90366813D01*
X149009271Y-90366832D01*
X148912085Y-90366847D01*
X148809421Y-90366857D01*
X148701133Y-90366863D01*
X148587072Y-90366866D01*
X148484267Y-90366867D01*
X148346008Y-90366859D01*
X148213722Y-90366840D01*
X148087414Y-90366809D01*
X147967086Y-90366766D01*
X147852741Y-90366710D01*
X147744385Y-90366643D01*
X147642018Y-90366564D01*
X147545646Y-90366473D01*
X147455271Y-90366370D01*
X147370897Y-90366255D01*
X147292527Y-90366128D01*
X147220165Y-90365989D01*
X147153814Y-90365838D01*
X147093477Y-90365675D01*
X147039159Y-90365500D01*
X146990861Y-90365314D01*
X146948588Y-90365115D01*
X146912343Y-90364905D01*
X146882129Y-90364682D01*
X146857950Y-90364448D01*
X146839809Y-90364202D01*
X146827710Y-90363944D01*
X146822477Y-90363735D01*
X146724270Y-90354912D01*
X146629127Y-90340893D01*
X146536977Y-90321657D01*
X146447750Y-90297180D01*
X146361375Y-90267440D01*
X146277782Y-90232414D01*
X146196901Y-90192080D01*
X146118661Y-90146413D01*
X146087691Y-90126385D01*
X146016533Y-90075441D01*
X145949379Y-90020046D01*
X145886359Y-89960397D01*
X145827607Y-89896691D01*
X145773254Y-89829122D01*
X145723433Y-89757887D01*
X145678276Y-89683183D01*
X145637914Y-89605205D01*
X145602482Y-89524150D01*
X145572109Y-89440214D01*
X145546930Y-89353594D01*
X145535972Y-89307731D01*
X145529670Y-89278200D01*
X145524060Y-89249363D01*
X145519110Y-89220716D01*
X145514784Y-89191756D01*
X145511050Y-89161980D01*
X145507874Y-89130887D01*
X145505222Y-89097971D01*
X145503061Y-89062732D01*
X145501357Y-89024666D01*
X145500077Y-88983270D01*
X145499186Y-88938041D01*
X145498651Y-88888477D01*
X145498439Y-88834074D01*
X145498516Y-88774330D01*
G36*
X144209838Y-103522219D02*
G01*
X144220375Y-103508724D01*
X144235232Y-103498397D01*
X144247703Y-103491726D01*
X145511655Y-103488702D01*
X145513167Y-103095607D01*
X145513389Y-103038686D01*
X145513599Y-102987498D01*
X145513803Y-102941728D01*
X145514004Y-102901062D01*
X145514209Y-102865185D01*
X145514424Y-102833782D01*
X145514653Y-102806540D01*
X145514903Y-102783143D01*
X145515177Y-102763276D01*
X145515483Y-102746625D01*
X145515825Y-102732876D01*
X145516208Y-102721714D01*
X145516639Y-102712824D01*
X145517122Y-102705891D01*
X145517662Y-102700601D01*
X145518266Y-102696640D01*
X145518939Y-102693693D01*
X145519685Y-102691444D01*
X145520118Y-102690416D01*
X145530346Y-102674201D01*
X145544934Y-102659942D01*
X145562206Y-102649268D01*
X145562735Y-102649026D01*
X145578179Y-102642035D01*
X145947084Y-102642035D01*
X145963715Y-102649901D01*
X145982169Y-102660953D01*
X145996136Y-102674925D01*
X146004084Y-102687353D01*
X146010584Y-102699488D01*
X146013608Y-103488702D01*
X147295703Y-103489594D01*
X147406914Y-103489669D01*
X147512252Y-103489733D01*
X147611892Y-103489787D01*
X147706008Y-103489827D01*
X147794775Y-103489855D01*
X147878367Y-103489867D01*
X147956958Y-103489864D01*
X148030724Y-103489844D01*
X148099839Y-103489805D01*
X148164478Y-103489747D01*
X148224815Y-103489669D01*
X148281024Y-103489569D01*
X148333281Y-103489447D01*
X148381760Y-103489300D01*
X148426635Y-103489128D01*
X148468081Y-103488931D01*
X148506272Y-103488706D01*
X148541384Y-103488452D01*
X148573590Y-103488169D01*
X148603066Y-103487855D01*
X148629986Y-103487509D01*
X148654524Y-103487130D01*
X148676855Y-103486717D01*
X148697154Y-103486268D01*
X148715594Y-103485783D01*
X148732352Y-103485260D01*
X148747601Y-103484699D01*
X148761516Y-103484097D01*
X148774271Y-103483455D01*
X148786041Y-103482770D01*
X148797001Y-103482042D01*
X148807325Y-103481269D01*
X148817188Y-103480451D01*
X148826764Y-103479586D01*
X148827262Y-103479539D01*
X148915416Y-103469254D01*
X148998728Y-103455426D01*
X149077192Y-103438061D01*
X149150798Y-103417164D01*
X149219539Y-103392741D01*
X149283407Y-103364798D01*
X149342393Y-103333339D01*
X149396491Y-103298370D01*
X149445691Y-103259897D01*
X149489985Y-103217924D01*
X149529366Y-103172458D01*
X149563826Y-103123504D01*
X149593357Y-103071067D01*
X149617950Y-103015153D01*
X149637597Y-102955767D01*
X149645211Y-102926273D01*
X149649340Y-102908225D01*
X149652779Y-102891647D01*
X149655607Y-102875695D01*
X149657901Y-102859523D01*
X149659741Y-102842286D01*
X149661203Y-102823137D01*
X149662367Y-102801232D01*
X149663310Y-102775724D01*
X149664111Y-102745768D01*
X149664768Y-102714607D01*
X149665470Y-102681607D01*
X149666191Y-102654210D01*
X149666955Y-102631973D01*
X149667783Y-102614451D01*
X149668698Y-102601200D01*
X149669721Y-102591776D01*
X149670875Y-102585735D01*
X149671226Y-102584583D01*
X149675674Y-102575769D01*
X149682847Y-102565535D01*
X149689024Y-102558420D01*
X149693501Y-102553813D01*
X149697665Y-102549844D01*
X149701981Y-102546466D01*
X149706913Y-102543631D01*
X149712927Y-102541292D01*
X149720486Y-102539401D01*
X149730056Y-102537910D01*
X149742102Y-102536772D01*
X149757088Y-102535940D01*
X149775479Y-102535365D01*
X149797739Y-102535000D01*
X149824335Y-102534797D01*
X149855730Y-102534710D01*
X149892389Y-102534690D01*
X149920805Y-102534690D01*
X149958956Y-102534696D01*
X149991547Y-102534725D01*
X150019064Y-102534791D01*
X150041994Y-102534908D01*
X150060825Y-102535093D01*
X150076043Y-102535359D01*
X150088135Y-102535722D01*
X150097589Y-102536196D01*
X150104890Y-102536796D01*
X150110527Y-102537538D01*
X150114986Y-102538435D01*
X150118754Y-102539502D01*
X150122318Y-102540756D01*
X150122527Y-102540834D01*
X150139712Y-102550152D01*
X150154722Y-102563777D01*
X150166117Y-102580184D01*
X150171118Y-102592318D01*
X150172493Y-102597875D01*
X150173569Y-102604696D01*
X150174373Y-102613488D01*
X150174932Y-102624961D01*
X150175273Y-102639824D01*
X150175421Y-102658788D01*
X150175403Y-102682560D01*
X150175299Y-102703816D01*
X150175123Y-102728308D01*
X150174906Y-102751763D01*
X150174660Y-102773251D01*
X150174397Y-102791840D01*
X150174130Y-102806596D01*
X150173871Y-102816589D01*
X150173777Y-102818928D01*
X150167127Y-102903155D01*
X150155362Y-102985816D01*
X150138603Y-103066507D01*
X150116971Y-103144823D01*
X150090585Y-103220361D01*
X150059566Y-103292716D01*
X150024033Y-103361485D01*
X150000840Y-103400469D01*
X149956310Y-103465893D01*
X149906957Y-103527733D01*
X149852862Y-103585944D01*
X149794107Y-103640483D01*
X149730770Y-103691307D01*
X149662933Y-103738372D01*
X149590675Y-103781634D01*
X149514077Y-103821049D01*
X149433220Y-103856575D01*
X149348183Y-103888168D01*
X149259047Y-103915785D01*
X149165892Y-103939380D01*
X149068799Y-103958912D01*
X148967847Y-103974337D01*
X148934608Y-103978414D01*
X148924577Y-103979590D01*
X148915286Y-103980703D01*
X148906558Y-103981755D01*
X148898221Y-103982748D01*
X148890098Y-103983683D01*
X148882016Y-103984564D01*
X148873800Y-103985391D01*
X148865275Y-103986166D01*
X148856267Y-103986892D01*
X148846602Y-103987570D01*
X148836104Y-103988202D01*
X148824600Y-103988790D01*
X148811914Y-103989336D01*
X148797873Y-103989842D01*
X148782301Y-103990310D01*
X148765025Y-103990741D01*
X148745869Y-103991138D01*
X148724660Y-103991502D01*
X148701221Y-103991836D01*
X148675380Y-103992141D01*
X148646962Y-103992419D01*
X148615791Y-103992672D01*
X148581694Y-103992901D01*
X148544496Y-103993110D01*
X148504022Y-103993299D01*
X148460098Y-103993471D01*
X148412549Y-103993628D01*
X148361201Y-103993770D01*
X148305879Y-103993901D01*
X148246409Y-103994023D01*
X148182616Y-103994136D01*
X148114325Y-103994243D01*
X148041363Y-103994346D01*
X147963554Y-103994447D01*
X147880724Y-103994547D01*
X147792699Y-103994649D01*
X147699304Y-103994755D01*
X147600364Y-103994865D01*
X147495704Y-103994983D01*
X147398512Y-103995095D01*
X146013608Y-103996702D01*
X146012096Y-104288500D01*
X146011843Y-104336988D01*
X146011612Y-104379799D01*
X146011392Y-104417303D01*
X146011174Y-104449871D01*
X146010949Y-104477871D01*
X146010705Y-104501676D01*
X146010434Y-104521654D01*
X146010127Y-104538176D01*
X146009772Y-104551613D01*
X146009360Y-104562335D01*
X146008882Y-104570711D01*
X146008328Y-104577113D01*
X146007688Y-104581909D01*
X146006952Y-104585472D01*
X146006110Y-104588170D01*
X146005153Y-104590375D01*
X146004084Y-104592432D01*
X145992515Y-104609234D01*
X145977397Y-104622245D01*
X145963715Y-104629884D01*
X145947084Y-104637750D01*
X145578179Y-104637750D01*
X145562329Y-104630585D01*
X145550939Y-104624068D01*
X145539932Y-104615618D01*
X145535577Y-104611352D01*
X145532166Y-104607706D01*
X145529148Y-104604523D01*
X145526497Y-104601432D01*
X145524187Y-104598062D01*
X145522193Y-104594041D01*
X145520488Y-104588997D01*
X145519048Y-104582558D01*
X145517847Y-104574354D01*
X145516858Y-104564012D01*
X145516056Y-104551160D01*
X145515416Y-104535428D01*
X145514912Y-104516444D01*
X145514518Y-104493836D01*
X145514208Y-104467232D01*
X145513958Y-104436261D01*
X145513740Y-104400551D01*
X145513530Y-104359730D01*
X145513302Y-104313428D01*
X145513167Y-104286988D01*
X145511655Y-103996702D01*
X144462393Y-103993678D01*
X144447790Y-103986938D01*
X144430752Y-103977520D01*
X144416111Y-103965658D01*
X144402330Y-103949988D01*
X144395150Y-103940105D01*
X144390575Y-103932723D01*
X144383827Y-103920771D01*
X144375180Y-103904807D01*
X144364914Y-103885385D01*
X144353303Y-103863062D01*
X144340626Y-103838394D01*
X144327158Y-103811938D01*
X144313178Y-103784249D01*
X144298962Y-103755885D01*
X144284786Y-103727400D01*
X144270928Y-103699351D01*
X144257665Y-103672295D01*
X144245273Y-103646788D01*
X144234030Y-103623385D01*
X144224212Y-103602643D01*
X144216097Y-103585118D01*
X144209960Y-103571366D01*
X144206080Y-103561944D01*
X144204753Y-103557685D01*
X144204663Y-103538476D01*
X144209838Y-103522219D01*
G37*
X144209838Y-103522219D02*
X144220375Y-103508724D01*
X144235232Y-103498397D01*
X144247703Y-103491726D01*
X145511655Y-103488702D01*
X145513167Y-103095607D01*
X145513389Y-103038686D01*
X145513599Y-102987498D01*
X145513803Y-102941728D01*
X145514004Y-102901062D01*
X145514209Y-102865185D01*
X145514424Y-102833782D01*
X145514653Y-102806540D01*
X145514903Y-102783143D01*
X145515177Y-102763276D01*
X145515483Y-102746625D01*
X145515825Y-102732876D01*
X145516208Y-102721714D01*
X145516639Y-102712824D01*
X145517122Y-102705891D01*
X145517662Y-102700601D01*
X145518266Y-102696640D01*
X145518939Y-102693693D01*
X145519685Y-102691444D01*
X145520118Y-102690416D01*
X145530346Y-102674201D01*
X145544934Y-102659942D01*
X145562206Y-102649268D01*
X145562735Y-102649026D01*
X145578179Y-102642035D01*
X145947084Y-102642035D01*
X145963715Y-102649901D01*
X145982169Y-102660953D01*
X145996136Y-102674925D01*
X146004084Y-102687353D01*
X146010584Y-102699488D01*
X146013608Y-103488702D01*
X147295703Y-103489594D01*
X147406914Y-103489669D01*
X147512252Y-103489733D01*
X147611892Y-103489787D01*
X147706008Y-103489827D01*
X147794775Y-103489855D01*
X147878367Y-103489867D01*
X147956958Y-103489864D01*
X148030724Y-103489844D01*
X148099839Y-103489805D01*
X148164478Y-103489747D01*
X148224815Y-103489669D01*
X148281024Y-103489569D01*
X148333281Y-103489447D01*
X148381760Y-103489300D01*
X148426635Y-103489128D01*
X148468081Y-103488931D01*
X148506272Y-103488706D01*
X148541384Y-103488452D01*
X148573590Y-103488169D01*
X148603066Y-103487855D01*
X148629986Y-103487509D01*
X148654524Y-103487130D01*
X148676855Y-103486717D01*
X148697154Y-103486268D01*
X148715594Y-103485783D01*
X148732352Y-103485260D01*
X148747601Y-103484699D01*
X148761516Y-103484097D01*
X148774271Y-103483455D01*
X148786041Y-103482770D01*
X148797001Y-103482042D01*
X148807325Y-103481269D01*
X148817188Y-103480451D01*
X148826764Y-103479586D01*
X148827262Y-103479539D01*
X148915416Y-103469254D01*
X148998728Y-103455426D01*
X149077192Y-103438061D01*
X149150798Y-103417164D01*
X149219539Y-103392741D01*
X149283407Y-103364798D01*
X149342393Y-103333339D01*
X149396491Y-103298370D01*
X149445691Y-103259897D01*
X149489985Y-103217924D01*
X149529366Y-103172458D01*
X149563826Y-103123504D01*
X149593357Y-103071067D01*
X149617950Y-103015153D01*
X149637597Y-102955767D01*
X149645211Y-102926273D01*
X149649340Y-102908225D01*
X149652779Y-102891647D01*
X149655607Y-102875695D01*
X149657901Y-102859523D01*
X149659741Y-102842286D01*
X149661203Y-102823137D01*
X149662367Y-102801232D01*
X149663310Y-102775724D01*
X149664111Y-102745768D01*
X149664768Y-102714607D01*
X149665470Y-102681607D01*
X149666191Y-102654210D01*
X149666955Y-102631973D01*
X149667783Y-102614451D01*
X149668698Y-102601200D01*
X149669721Y-102591776D01*
X149670875Y-102585735D01*
X149671226Y-102584583D01*
X149675674Y-102575769D01*
X149682847Y-102565535D01*
X149689024Y-102558420D01*
X149693501Y-102553813D01*
X149697665Y-102549844D01*
X149701981Y-102546466D01*
X149706913Y-102543631D01*
X149712927Y-102541292D01*
X149720486Y-102539401D01*
X149730056Y-102537910D01*
X149742102Y-102536772D01*
X149757088Y-102535940D01*
X149775479Y-102535365D01*
X149797739Y-102535000D01*
X149824335Y-102534797D01*
X149855730Y-102534710D01*
X149892389Y-102534690D01*
X149920805Y-102534690D01*
X149958956Y-102534696D01*
X149991547Y-102534725D01*
X150019064Y-102534791D01*
X150041994Y-102534908D01*
X150060825Y-102535093D01*
X150076043Y-102535359D01*
X150088135Y-102535722D01*
X150097589Y-102536196D01*
X150104890Y-102536796D01*
X150110527Y-102537538D01*
X150114986Y-102538435D01*
X150118754Y-102539502D01*
X150122318Y-102540756D01*
X150122527Y-102540834D01*
X150139712Y-102550152D01*
X150154722Y-102563777D01*
X150166117Y-102580184D01*
X150171118Y-102592318D01*
X150172493Y-102597875D01*
X150173569Y-102604696D01*
X150174373Y-102613488D01*
X150174932Y-102624961D01*
X150175273Y-102639824D01*
X150175421Y-102658788D01*
X150175403Y-102682560D01*
X150175299Y-102703816D01*
X150175123Y-102728308D01*
X150174906Y-102751763D01*
X150174660Y-102773251D01*
X150174397Y-102791840D01*
X150174130Y-102806596D01*
X150173871Y-102816589D01*
X150173777Y-102818928D01*
X150167127Y-102903155D01*
X150155362Y-102985816D01*
X150138603Y-103066507D01*
X150116971Y-103144823D01*
X150090585Y-103220361D01*
X150059566Y-103292716D01*
X150024033Y-103361485D01*
X150000840Y-103400469D01*
X149956310Y-103465893D01*
X149906957Y-103527733D01*
X149852862Y-103585944D01*
X149794107Y-103640483D01*
X149730770Y-103691307D01*
X149662933Y-103738372D01*
X149590675Y-103781634D01*
X149514077Y-103821049D01*
X149433220Y-103856575D01*
X149348183Y-103888168D01*
X149259047Y-103915785D01*
X149165892Y-103939380D01*
X149068799Y-103958912D01*
X148967847Y-103974337D01*
X148934608Y-103978414D01*
X148924577Y-103979590D01*
X148915286Y-103980703D01*
X148906558Y-103981755D01*
X148898221Y-103982748D01*
X148890098Y-103983683D01*
X148882016Y-103984564D01*
X148873800Y-103985391D01*
X148865275Y-103986166D01*
X148856267Y-103986892D01*
X148846602Y-103987570D01*
X148836104Y-103988202D01*
X148824600Y-103988790D01*
X148811914Y-103989336D01*
X148797873Y-103989842D01*
X148782301Y-103990310D01*
X148765025Y-103990741D01*
X148745869Y-103991138D01*
X148724660Y-103991502D01*
X148701221Y-103991836D01*
X148675380Y-103992141D01*
X148646962Y-103992419D01*
X148615791Y-103992672D01*
X148581694Y-103992901D01*
X148544496Y-103993110D01*
X148504022Y-103993299D01*
X148460098Y-103993471D01*
X148412549Y-103993628D01*
X148361201Y-103993770D01*
X148305879Y-103993901D01*
X148246409Y-103994023D01*
X148182616Y-103994136D01*
X148114325Y-103994243D01*
X148041363Y-103994346D01*
X147963554Y-103994447D01*
X147880724Y-103994547D01*
X147792699Y-103994649D01*
X147699304Y-103994755D01*
X147600364Y-103994865D01*
X147495704Y-103994983D01*
X147398512Y-103995095D01*
X146013608Y-103996702D01*
X146012096Y-104288500D01*
X146011843Y-104336988D01*
X146011612Y-104379799D01*
X146011392Y-104417303D01*
X146011174Y-104449871D01*
X146010949Y-104477871D01*
X146010705Y-104501676D01*
X146010434Y-104521654D01*
X146010127Y-104538176D01*
X146009772Y-104551613D01*
X146009360Y-104562335D01*
X146008882Y-104570711D01*
X146008328Y-104577113D01*
X146007688Y-104581909D01*
X146006952Y-104585472D01*
X146006110Y-104588170D01*
X146005153Y-104590375D01*
X146004084Y-104592432D01*
X145992515Y-104609234D01*
X145977397Y-104622245D01*
X145963715Y-104629884D01*
X145947084Y-104637750D01*
X145578179Y-104637750D01*
X145562329Y-104630585D01*
X145550939Y-104624068D01*
X145539932Y-104615618D01*
X145535577Y-104611352D01*
X145532166Y-104607706D01*
X145529148Y-104604523D01*
X145526497Y-104601432D01*
X145524187Y-104598062D01*
X145522193Y-104594041D01*
X145520488Y-104588997D01*
X145519048Y-104582558D01*
X145517847Y-104574354D01*
X145516858Y-104564012D01*
X145516056Y-104551160D01*
X145515416Y-104535428D01*
X145514912Y-104516444D01*
X145514518Y-104493836D01*
X145514208Y-104467232D01*
X145513958Y-104436261D01*
X145513740Y-104400551D01*
X145513530Y-104359730D01*
X145513302Y-104313428D01*
X145513167Y-104286988D01*
X145511655Y-103996702D01*
X144462393Y-103993678D01*
X144447790Y-103986938D01*
X144430752Y-103977520D01*
X144416111Y-103965658D01*
X144402330Y-103949988D01*
X144395150Y-103940105D01*
X144390575Y-103932723D01*
X144383827Y-103920771D01*
X144375180Y-103904807D01*
X144364914Y-103885385D01*
X144353303Y-103863062D01*
X144340626Y-103838394D01*
X144327158Y-103811938D01*
X144313178Y-103784249D01*
X144298962Y-103755885D01*
X144284786Y-103727400D01*
X144270928Y-103699351D01*
X144257665Y-103672295D01*
X144245273Y-103646788D01*
X144234030Y-103623385D01*
X144224212Y-103602643D01*
X144216097Y-103585118D01*
X144209960Y-103571366D01*
X144206080Y-103561944D01*
X144204753Y-103557685D01*
X144204663Y-103538476D01*
X144209838Y-103522219D01*
G36*
X145436148Y-86011083D02*
G01*
X145436383Y-85971804D01*
X145437084Y-85937214D01*
X145438355Y-85905966D01*
X145440301Y-85876713D01*
X145443026Y-85848107D01*
X145446637Y-85818801D01*
X145451238Y-85787448D01*
X145455680Y-85760107D01*
X145473182Y-85673391D01*
X145496140Y-85588963D01*
X145524438Y-85507024D01*
X145557960Y-85427770D01*
X145596593Y-85351402D01*
X145640220Y-85278117D01*
X145688726Y-85208115D01*
X145741996Y-85141595D01*
X145799915Y-85078755D01*
X145862367Y-85019794D01*
X145906551Y-84982669D01*
X145976859Y-84930166D01*
X146051070Y-84882179D01*
X146128963Y-84838797D01*
X146210319Y-84800111D01*
X146294918Y-84766212D01*
X146382539Y-84737191D01*
X146472963Y-84713137D01*
X146565970Y-84694142D01*
X146632255Y-84683936D01*
X146642310Y-84682579D01*
X146651714Y-84681305D01*
X146660668Y-84680110D01*
X146669371Y-84678991D01*
X146678025Y-84677947D01*
X146686830Y-84676974D01*
X146695986Y-84676071D01*
X146705694Y-84675234D01*
X146716155Y-84674461D01*
X146727569Y-84673749D01*
X146740136Y-84673097D01*
X146754057Y-84672501D01*
X146769533Y-84671959D01*
X146786763Y-84671468D01*
X146805949Y-84671025D01*
X146827292Y-84670630D01*
X146850990Y-84670277D01*
X146877246Y-84669966D01*
X146906259Y-84669694D01*
X146938230Y-84669457D01*
X146973359Y-84669254D01*
X147011848Y-84669083D01*
X147053896Y-84668939D01*
X147099704Y-84668822D01*
X147149473Y-84668727D01*
X147203402Y-84668654D01*
X147261693Y-84668599D01*
X147324547Y-84668559D01*
X147392162Y-84668533D01*
X147464741Y-84668518D01*
X147542483Y-84668510D01*
X147625590Y-84668508D01*
X147714260Y-84668510D01*
X147808696Y-84668511D01*
X147849060Y-84668512D01*
X147946026Y-84668510D01*
X148037144Y-84668506D01*
X148122613Y-84668503D01*
X148202634Y-84668503D01*
X148277407Y-84668510D01*
X148347130Y-84668526D01*
X148412004Y-84668554D01*
X148472228Y-84668597D01*
X148528002Y-84668656D01*
X148579526Y-84668736D01*
X148627000Y-84668839D01*
X148670622Y-84668967D01*
X148710594Y-84669123D01*
X148747114Y-84669311D01*
X148780382Y-84669532D01*
X148810598Y-84669790D01*
X148837962Y-84670087D01*
X148862673Y-84670426D01*
X148884932Y-84670810D01*
X148904937Y-84671242D01*
X148922889Y-84671724D01*
X148938986Y-84672259D01*
X148953430Y-84672850D01*
X148966420Y-84673499D01*
X148978154Y-84674210D01*
X148988834Y-84674984D01*
X148998658Y-84675826D01*
X149007827Y-84676737D01*
X149016540Y-84677720D01*
X149024997Y-84678778D01*
X149033398Y-84679915D01*
X149041941Y-84681131D01*
X149050828Y-84682431D01*
X149060257Y-84683817D01*
X149070429Y-84685292D01*
X149070679Y-84685328D01*
X149166043Y-84701778D01*
X149258748Y-84723410D01*
X149348641Y-84750159D01*
X149435568Y-84781961D01*
X149519376Y-84818751D01*
X149599912Y-84860467D01*
X149677023Y-84907043D01*
X149750554Y-84958416D01*
X149782786Y-84983362D01*
X149803751Y-85000920D01*
X149827413Y-85022116D01*
X149852741Y-85045921D01*
X149878704Y-85071305D01*
X149904274Y-85097239D01*
X149928419Y-85122693D01*
X149950110Y-85146637D01*
X149968317Y-85168042D01*
X149971489Y-85171976D01*
X149988195Y-85193666D01*
X150006367Y-85218528D01*
X150025028Y-85245131D01*
X150043204Y-85272045D01*
X150059919Y-85297842D01*
X150074199Y-85321092D01*
X150079787Y-85330726D01*
X150117393Y-85401866D01*
X150150161Y-85474104D01*
X150178288Y-85548067D01*
X150201973Y-85624385D01*
X150221411Y-85703686D01*
X150236801Y-85786599D01*
X150247309Y-85864428D01*
X150248349Y-85876425D01*
X150249354Y-85893182D01*
X150250303Y-85913751D01*
X150251176Y-85937183D01*
X150251952Y-85962527D01*
X150252611Y-85988835D01*
X150253133Y-86015157D01*
X150253496Y-86040543D01*
X150253682Y-86064045D01*
X150253669Y-86084712D01*
X150253438Y-86101596D01*
X150252967Y-86113748D01*
X150252722Y-86116916D01*
X150252015Y-86124682D01*
X150250956Y-86136796D01*
X150249692Y-86151577D01*
X150248412Y-86166809D01*
X150238156Y-86255979D01*
X150222422Y-86343700D01*
X150201333Y-86429612D01*
X150175010Y-86513359D01*
X150143575Y-86594583D01*
X150107149Y-86672925D01*
X150065854Y-86748027D01*
X150033263Y-86799762D01*
X150004256Y-86841786D01*
X149975267Y-86880455D01*
X149945082Y-86917226D01*
X149912487Y-86953555D01*
X149876267Y-86990897D01*
X149862540Y-87004447D01*
X149798312Y-87062998D01*
X149730063Y-87117105D01*
X149657952Y-87166691D01*
X149582139Y-87211682D01*
X149502784Y-87252001D01*
X149420047Y-87287573D01*
X149334088Y-87318322D01*
X149245067Y-87344173D01*
X149153144Y-87365049D01*
X149070679Y-87379143D01*
X149034936Y-87384052D01*
X149001546Y-87387955D01*
X148969108Y-87390943D01*
X148936225Y-87393109D01*
X148901498Y-87394545D01*
X148863529Y-87395343D01*
X148845686Y-87395449D01*
X148845686Y-86897444D01*
X148879488Y-86896071D01*
X148952447Y-86890260D01*
X149020881Y-86881288D01*
X149085529Y-86868974D01*
X149147130Y-86853135D01*
X149206424Y-86833588D01*
X149264149Y-86810150D01*
X149305024Y-86790828D01*
X149366515Y-86756849D01*
X149423692Y-86718666D01*
X149476476Y-86676390D01*
X149524787Y-86630136D01*
X149568544Y-86580017D01*
X149607668Y-86526146D01*
X149642079Y-86468637D01*
X149671695Y-86407604D01*
X149696439Y-86343159D01*
X149716228Y-86275418D01*
X149730984Y-86204492D01*
X149734516Y-86181928D01*
X149742130Y-86111222D01*
X149744939Y-86038571D01*
X149742915Y-85965741D01*
X149738635Y-85915833D01*
X149727873Y-85844120D01*
X149711859Y-85775341D01*
X149690705Y-85709632D01*
X149664520Y-85647130D01*
X149633416Y-85587972D01*
X149597502Y-85532293D01*
X149556889Y-85480231D01*
X149511688Y-85431922D01*
X149462008Y-85387502D01*
X149407961Y-85347108D01*
X149349657Y-85310876D01*
X149287206Y-85278943D01*
X149220718Y-85251445D01*
X149193143Y-85241760D01*
X149145558Y-85227079D01*
X149097037Y-85214640D01*
X149046166Y-85204135D01*
X148991531Y-85195256D01*
X148960280Y-85191069D01*
X148954085Y-85190332D01*
X148947635Y-85189663D01*
X148940619Y-85189061D01*
X148932729Y-85188520D01*
X148923657Y-85188038D01*
X148913093Y-85187611D01*
X148900728Y-85187236D01*
X148886253Y-85186910D01*
X148869360Y-85186630D01*
X148849739Y-85186391D01*
X148827082Y-85186191D01*
X148801079Y-85186027D01*
X148771421Y-85185894D01*
X148737801Y-85185790D01*
X148699908Y-85185712D01*
X148657434Y-85185656D01*
X148610069Y-85185618D01*
X148557506Y-85185595D01*
X148499435Y-85185585D01*
X148452310Y-85185583D01*
X147988155Y-85185583D01*
X147988155Y-85648226D01*
X147988157Y-85711820D01*
X147988167Y-85769687D01*
X147988193Y-85822149D01*
X147988243Y-85869527D01*
X147988324Y-85912142D01*
X147988445Y-85950316D01*
X147988613Y-85984368D01*
X147988836Y-86014621D01*
X147989121Y-86041396D01*
X147989477Y-86065014D01*
X147989911Y-86085796D01*
X147990431Y-86104063D01*
X147991045Y-86120136D01*
X147991760Y-86134337D01*
X147992584Y-86146987D01*
X147993524Y-86158406D01*
X147994590Y-86168916D01*
X147995788Y-86178839D01*
X147997126Y-86188495D01*
X147998612Y-86198206D01*
X148000254Y-86208292D01*
X148001914Y-86218214D01*
X148016656Y-86289089D01*
X148036547Y-86357172D01*
X148061503Y-86422268D01*
X148091437Y-86484182D01*
X148126264Y-86542722D01*
X148165898Y-86597693D01*
X148173717Y-86607416D01*
X148218817Y-86657859D01*
X148267790Y-86703763D01*
X148320410Y-86745036D01*
X148376454Y-86781586D01*
X148435696Y-86813320D01*
X148497910Y-86840147D01*
X148562871Y-86861974D01*
X148630355Y-86878709D01*
X148700135Y-86890261D01*
X148771987Y-86896537D01*
X148845686Y-86897444D01*
X148845686Y-87395449D01*
X148821215Y-87395596D01*
X148783269Y-87395438D01*
X148750054Y-87394870D01*
X148720260Y-87393792D01*
X148692579Y-87392103D01*
X148665701Y-87389701D01*
X148638317Y-87386485D01*
X148609118Y-87382353D01*
X148576794Y-87377205D01*
X148570991Y-87376237D01*
X148484638Y-87358787D01*
X148399865Y-87335715D01*
X148317011Y-87307192D01*
X148236411Y-87273384D01*
X148158402Y-87234460D01*
X148083323Y-87190589D01*
X148011508Y-87141939D01*
X147943297Y-87088678D01*
X147879025Y-87030974D01*
X147878393Y-87030365D01*
X147818109Y-86968072D01*
X147762350Y-86901872D01*
X147711240Y-86832004D01*
X147664905Y-86758710D01*
X147623469Y-86682229D01*
X147587056Y-86602802D01*
X147555790Y-86520669D01*
X147529797Y-86436072D01*
X147509200Y-86349249D01*
X147500077Y-86299788D01*
X147497606Y-86284975D01*
X147495353Y-86271465D01*
X147493306Y-86258933D01*
X147491455Y-86247057D01*
X147489789Y-86235516D01*
X147488298Y-86223986D01*
X147486972Y-86212145D01*
X147485799Y-86199670D01*
X147484770Y-86186239D01*
X147483873Y-86171529D01*
X147483100Y-86155218D01*
X147482438Y-86136983D01*
X147481877Y-86116502D01*
X147481407Y-86093452D01*
X147481018Y-86067511D01*
X147480699Y-86038356D01*
X147480439Y-86005664D01*
X147480228Y-85969114D01*
X147480056Y-85928381D01*
X147479911Y-85883145D01*
X147479784Y-85833083D01*
X147479664Y-85777871D01*
X147479541Y-85717188D01*
X147479434Y-85665452D01*
X147478404Y-85174677D01*
X147127006Y-85175793D01*
X147072546Y-85175974D01*
X147023772Y-85176154D01*
X146980322Y-85176340D01*
X146941834Y-85176537D01*
X146907946Y-85176752D01*
X146878297Y-85176989D01*
X146852524Y-85177257D01*
X146830266Y-85177559D01*
X146811161Y-85177902D01*
X146794847Y-85178292D01*
X146780961Y-85178734D01*
X146769143Y-85179236D01*
X146759031Y-85179801D01*
X146750262Y-85180437D01*
X146742475Y-85181149D01*
X146735308Y-85181944D01*
X146733274Y-85182193D01*
X146654866Y-85194150D01*
X146580912Y-85209949D01*
X146511104Y-85229706D01*
X146445131Y-85253539D01*
X146382684Y-85281566D01*
X146323451Y-85313905D01*
X146267124Y-85350671D01*
X146244121Y-85367567D01*
X146223648Y-85384205D01*
X146200966Y-85404486D01*
X146177324Y-85427148D01*
X146153974Y-85450930D01*
X146132167Y-85474568D01*
X146113153Y-85496801D01*
X146102330Y-85510642D01*
X146065068Y-85565068D01*
X146033045Y-85621286D01*
X146006136Y-85679661D01*
X145984214Y-85740559D01*
X145967153Y-85804346D01*
X145954827Y-85871388D01*
X145947110Y-85942050D01*
X145945595Y-85965467D01*
X145944436Y-86035730D01*
X145948625Y-86104554D01*
X145958076Y-86171595D01*
X145972702Y-86236510D01*
X145992417Y-86298955D01*
X146017134Y-86358588D01*
X146046766Y-86415064D01*
X146067355Y-86448023D01*
X146094295Y-86485360D01*
X146125182Y-86522788D01*
X146158556Y-86558709D01*
X146192956Y-86591526D01*
X146217715Y-86612475D01*
X146273383Y-86653058D01*
X146333315Y-86689434D01*
X146397383Y-86721557D01*
X146465462Y-86749379D01*
X146537427Y-86772857D01*
X146613151Y-86791943D01*
X146692509Y-86806591D01*
X146775376Y-86816756D01*
X146775783Y-86816794D01*
X146804743Y-86820296D01*
X146828347Y-86825018D01*
X146847205Y-86831191D01*
X146861926Y-86839047D01*
X146873120Y-86848817D01*
X146878368Y-86855649D01*
X146881119Y-86860050D01*
X146883479Y-86864615D01*
X146885475Y-86869815D01*
X146887134Y-86876122D01*
X146888485Y-86884008D01*
X146889554Y-86893946D01*
X146890369Y-86906407D01*
X146890957Y-86921864D01*
X146891345Y-86940788D01*
X146891560Y-86963652D01*
X146891631Y-86990928D01*
X146891584Y-87023087D01*
X146891447Y-87060602D01*
X146891360Y-87080014D01*
X146891179Y-87117852D01*
X146891005Y-87150126D01*
X146890817Y-87177320D01*
X146890600Y-87199917D01*
X146890335Y-87218402D01*
X146890003Y-87233257D01*
X146889589Y-87244967D01*
X146889073Y-87254016D01*
X146888437Y-87260886D01*
X146887665Y-87266062D01*
X146886738Y-87270028D01*
X146885638Y-87273267D01*
X146884348Y-87276262D01*
X146884120Y-87276759D01*
X146872736Y-87294481D01*
X146857008Y-87308957D01*
X146838603Y-87318809D01*
X146828646Y-87321816D01*
X146817109Y-87323779D01*
X146803176Y-87324710D01*
X146786033Y-87324621D01*
X146764861Y-87323523D01*
X146738846Y-87321428D01*
X146727620Y-87320383D01*
X146624944Y-87307902D01*
X146525648Y-87290458D01*
X146429752Y-87268057D01*
X146337277Y-87240708D01*
X146248241Y-87208416D01*
X146162665Y-87171188D01*
X146080569Y-87129031D01*
X146001972Y-87081951D01*
X145975467Y-87064429D01*
X145904674Y-87012918D01*
X145838468Y-86957509D01*
X145776942Y-86898349D01*
X145720188Y-86835585D01*
X145668299Y-86769363D01*
X145621366Y-86699833D01*
X145579482Y-86627139D01*
X145542740Y-86551430D01*
X145511230Y-86472853D01*
X145485047Y-86391555D01*
X145464282Y-86307683D01*
X145449675Y-86225878D01*
X145445849Y-86198614D01*
X145442788Y-86173990D01*
X145440415Y-86150774D01*
X145438652Y-86127732D01*
X145437421Y-86103630D01*
X145436645Y-86077235D01*
X145436247Y-86047314D01*
X145436147Y-86012633D01*
X145436148Y-86011083D01*
G37*
X145436148Y-86011083D02*
X145436383Y-85971804D01*
X145437084Y-85937214D01*
X145438355Y-85905966D01*
X145440301Y-85876713D01*
X145443026Y-85848107D01*
X145446637Y-85818801D01*
X145451238Y-85787448D01*
X145455680Y-85760107D01*
X145473182Y-85673391D01*
X145496140Y-85588963D01*
X145524438Y-85507024D01*
X145557960Y-85427770D01*
X145596593Y-85351402D01*
X145640220Y-85278117D01*
X145688726Y-85208115D01*
X145741996Y-85141595D01*
X145799915Y-85078755D01*
X145862367Y-85019794D01*
X145906551Y-84982669D01*
X145976859Y-84930166D01*
X146051070Y-84882179D01*
X146128963Y-84838797D01*
X146210319Y-84800111D01*
X146294918Y-84766212D01*
X146382539Y-84737191D01*
X146472963Y-84713137D01*
X146565970Y-84694142D01*
X146632255Y-84683936D01*
X146642310Y-84682579D01*
X146651714Y-84681305D01*
X146660668Y-84680110D01*
X146669371Y-84678991D01*
X146678025Y-84677947D01*
X146686830Y-84676974D01*
X146695986Y-84676071D01*
X146705694Y-84675234D01*
X146716155Y-84674461D01*
X146727569Y-84673749D01*
X146740136Y-84673097D01*
X146754057Y-84672501D01*
X146769533Y-84671959D01*
X146786763Y-84671468D01*
X146805949Y-84671025D01*
X146827292Y-84670630D01*
X146850990Y-84670277D01*
X146877246Y-84669966D01*
X146906259Y-84669694D01*
X146938230Y-84669457D01*
X146973359Y-84669254D01*
X147011848Y-84669083D01*
X147053896Y-84668939D01*
X147099704Y-84668822D01*
X147149473Y-84668727D01*
X147203402Y-84668654D01*
X147261693Y-84668599D01*
X147324547Y-84668559D01*
X147392162Y-84668533D01*
X147464741Y-84668518D01*
X147542483Y-84668510D01*
X147625590Y-84668508D01*
X147714260Y-84668510D01*
X147808696Y-84668511D01*
X147849060Y-84668512D01*
X147946026Y-84668510D01*
X148037144Y-84668506D01*
X148122613Y-84668503D01*
X148202634Y-84668503D01*
X148277407Y-84668510D01*
X148347130Y-84668526D01*
X148412004Y-84668554D01*
X148472228Y-84668597D01*
X148528002Y-84668656D01*
X148579526Y-84668736D01*
X148627000Y-84668839D01*
X148670622Y-84668967D01*
X148710594Y-84669123D01*
X148747114Y-84669311D01*
X148780382Y-84669532D01*
X148810598Y-84669790D01*
X148837962Y-84670087D01*
X148862673Y-84670426D01*
X148884932Y-84670810D01*
X148904937Y-84671242D01*
X148922889Y-84671724D01*
X148938986Y-84672259D01*
X148953430Y-84672850D01*
X148966420Y-84673499D01*
X148978154Y-84674210D01*
X148988834Y-84674984D01*
X148998658Y-84675826D01*
X149007827Y-84676737D01*
X149016540Y-84677720D01*
X149024997Y-84678778D01*
X149033398Y-84679915D01*
X149041941Y-84681131D01*
X149050828Y-84682431D01*
X149060257Y-84683817D01*
X149070429Y-84685292D01*
X149070679Y-84685328D01*
X149166043Y-84701778D01*
X149258748Y-84723410D01*
X149348641Y-84750159D01*
X149435568Y-84781961D01*
X149519376Y-84818751D01*
X149599912Y-84860467D01*
X149677023Y-84907043D01*
X149750554Y-84958416D01*
X149782786Y-84983362D01*
X149803751Y-85000920D01*
X149827413Y-85022116D01*
X149852741Y-85045921D01*
X149878704Y-85071305D01*
X149904274Y-85097239D01*
X149928419Y-85122693D01*
X149950110Y-85146637D01*
X149968317Y-85168042D01*
X149971489Y-85171976D01*
X149988195Y-85193666D01*
X150006367Y-85218528D01*
X150025028Y-85245131D01*
X150043204Y-85272045D01*
X150059919Y-85297842D01*
X150074199Y-85321092D01*
X150079787Y-85330726D01*
X150117393Y-85401866D01*
X150150161Y-85474104D01*
X150178288Y-85548067D01*
X150201973Y-85624385D01*
X150221411Y-85703686D01*
X150236801Y-85786599D01*
X150247309Y-85864428D01*
X150248349Y-85876425D01*
X150249354Y-85893182D01*
X150250303Y-85913751D01*
X150251176Y-85937183D01*
X150251952Y-85962527D01*
X150252611Y-85988835D01*
X150253133Y-86015157D01*
X150253496Y-86040543D01*
X150253682Y-86064045D01*
X150253669Y-86084712D01*
X150253438Y-86101596D01*
X150252967Y-86113748D01*
X150252722Y-86116916D01*
X150252015Y-86124682D01*
X150250956Y-86136796D01*
X150249692Y-86151577D01*
X150248412Y-86166809D01*
X150238156Y-86255979D01*
X150222422Y-86343700D01*
X150201333Y-86429612D01*
X150175010Y-86513359D01*
X150143575Y-86594583D01*
X150107149Y-86672925D01*
X150065854Y-86748027D01*
X150033263Y-86799762D01*
X150004256Y-86841786D01*
X149975267Y-86880455D01*
X149945082Y-86917226D01*
X149912487Y-86953555D01*
X149876267Y-86990897D01*
X149862540Y-87004447D01*
X149798312Y-87062998D01*
X149730063Y-87117105D01*
X149657952Y-87166691D01*
X149582139Y-87211682D01*
X149502784Y-87252001D01*
X149420047Y-87287573D01*
X149334088Y-87318322D01*
X149245067Y-87344173D01*
X149153144Y-87365049D01*
X149070679Y-87379143D01*
X149034936Y-87384052D01*
X149001546Y-87387955D01*
X148969108Y-87390943D01*
X148936225Y-87393109D01*
X148901498Y-87394545D01*
X148863529Y-87395343D01*
X148845686Y-87395449D01*
X148845686Y-86897444D01*
X148879488Y-86896071D01*
X148952447Y-86890260D01*
X149020881Y-86881288D01*
X149085529Y-86868974D01*
X149147130Y-86853135D01*
X149206424Y-86833588D01*
X149264149Y-86810150D01*
X149305024Y-86790828D01*
X149366515Y-86756849D01*
X149423692Y-86718666D01*
X149476476Y-86676390D01*
X149524787Y-86630136D01*
X149568544Y-86580017D01*
X149607668Y-86526146D01*
X149642079Y-86468637D01*
X149671695Y-86407604D01*
X149696439Y-86343159D01*
X149716228Y-86275418D01*
X149730984Y-86204492D01*
X149734516Y-86181928D01*
X149742130Y-86111222D01*
X149744939Y-86038571D01*
X149742915Y-85965741D01*
X149738635Y-85915833D01*
X149727873Y-85844120D01*
X149711859Y-85775341D01*
X149690705Y-85709632D01*
X149664520Y-85647130D01*
X149633416Y-85587972D01*
X149597502Y-85532293D01*
X149556889Y-85480231D01*
X149511688Y-85431922D01*
X149462008Y-85387502D01*
X149407961Y-85347108D01*
X149349657Y-85310876D01*
X149287206Y-85278943D01*
X149220718Y-85251445D01*
X149193143Y-85241760D01*
X149145558Y-85227079D01*
X149097037Y-85214640D01*
X149046166Y-85204135D01*
X148991531Y-85195256D01*
X148960280Y-85191069D01*
X148954085Y-85190332D01*
X148947635Y-85189663D01*
X148940619Y-85189061D01*
X148932729Y-85188520D01*
X148923657Y-85188038D01*
X148913093Y-85187611D01*
X148900728Y-85187236D01*
X148886253Y-85186910D01*
X148869360Y-85186630D01*
X148849739Y-85186391D01*
X148827082Y-85186191D01*
X148801079Y-85186027D01*
X148771421Y-85185894D01*
X148737801Y-85185790D01*
X148699908Y-85185712D01*
X148657434Y-85185656D01*
X148610069Y-85185618D01*
X148557506Y-85185595D01*
X148499435Y-85185585D01*
X148452310Y-85185583D01*
X147988155Y-85185583D01*
X147988155Y-85648226D01*
X147988157Y-85711820D01*
X147988167Y-85769687D01*
X147988193Y-85822149D01*
X147988243Y-85869527D01*
X147988324Y-85912142D01*
X147988445Y-85950316D01*
X147988613Y-85984368D01*
X147988836Y-86014621D01*
X147989121Y-86041396D01*
X147989477Y-86065014D01*
X147989911Y-86085796D01*
X147990431Y-86104063D01*
X147991045Y-86120136D01*
X147991760Y-86134337D01*
X147992584Y-86146987D01*
X147993524Y-86158406D01*
X147994590Y-86168916D01*
X147995788Y-86178839D01*
X147997126Y-86188495D01*
X147998612Y-86198206D01*
X148000254Y-86208292D01*
X148001914Y-86218214D01*
X148016656Y-86289089D01*
X148036547Y-86357172D01*
X148061503Y-86422268D01*
X148091437Y-86484182D01*
X148126264Y-86542722D01*
X148165898Y-86597693D01*
X148173717Y-86607416D01*
X148218817Y-86657859D01*
X148267790Y-86703763D01*
X148320410Y-86745036D01*
X148376454Y-86781586D01*
X148435696Y-86813320D01*
X148497910Y-86840147D01*
X148562871Y-86861974D01*
X148630355Y-86878709D01*
X148700135Y-86890261D01*
X148771987Y-86896537D01*
X148845686Y-86897444D01*
X148845686Y-87395449D01*
X148821215Y-87395596D01*
X148783269Y-87395438D01*
X148750054Y-87394870D01*
X148720260Y-87393792D01*
X148692579Y-87392103D01*
X148665701Y-87389701D01*
X148638317Y-87386485D01*
X148609118Y-87382353D01*
X148576794Y-87377205D01*
X148570991Y-87376237D01*
X148484638Y-87358787D01*
X148399865Y-87335715D01*
X148317011Y-87307192D01*
X148236411Y-87273384D01*
X148158402Y-87234460D01*
X148083323Y-87190589D01*
X148011508Y-87141939D01*
X147943297Y-87088678D01*
X147879025Y-87030974D01*
X147878393Y-87030365D01*
X147818109Y-86968072D01*
X147762350Y-86901872D01*
X147711240Y-86832004D01*
X147664905Y-86758710D01*
X147623469Y-86682229D01*
X147587056Y-86602802D01*
X147555790Y-86520669D01*
X147529797Y-86436072D01*
X147509200Y-86349249D01*
X147500077Y-86299788D01*
X147497606Y-86284975D01*
X147495353Y-86271465D01*
X147493306Y-86258933D01*
X147491455Y-86247057D01*
X147489789Y-86235516D01*
X147488298Y-86223986D01*
X147486972Y-86212145D01*
X147485799Y-86199670D01*
X147484770Y-86186239D01*
X147483873Y-86171529D01*
X147483100Y-86155218D01*
X147482438Y-86136983D01*
X147481877Y-86116502D01*
X147481407Y-86093452D01*
X147481018Y-86067511D01*
X147480699Y-86038356D01*
X147480439Y-86005664D01*
X147480228Y-85969114D01*
X147480056Y-85928381D01*
X147479911Y-85883145D01*
X147479784Y-85833083D01*
X147479664Y-85777871D01*
X147479541Y-85717188D01*
X147479434Y-85665452D01*
X147478404Y-85174677D01*
X147127006Y-85175793D01*
X147072546Y-85175974D01*
X147023772Y-85176154D01*
X146980322Y-85176340D01*
X146941834Y-85176537D01*
X146907946Y-85176752D01*
X146878297Y-85176989D01*
X146852524Y-85177257D01*
X146830266Y-85177559D01*
X146811161Y-85177902D01*
X146794847Y-85178292D01*
X146780961Y-85178734D01*
X146769143Y-85179236D01*
X146759031Y-85179801D01*
X146750262Y-85180437D01*
X146742475Y-85181149D01*
X146735308Y-85181944D01*
X146733274Y-85182193D01*
X146654866Y-85194150D01*
X146580912Y-85209949D01*
X146511104Y-85229706D01*
X146445131Y-85253539D01*
X146382684Y-85281566D01*
X146323451Y-85313905D01*
X146267124Y-85350671D01*
X146244121Y-85367567D01*
X146223648Y-85384205D01*
X146200966Y-85404486D01*
X146177324Y-85427148D01*
X146153974Y-85450930D01*
X146132167Y-85474568D01*
X146113153Y-85496801D01*
X146102330Y-85510642D01*
X146065068Y-85565068D01*
X146033045Y-85621286D01*
X146006136Y-85679661D01*
X145984214Y-85740559D01*
X145967153Y-85804346D01*
X145954827Y-85871388D01*
X145947110Y-85942050D01*
X145945595Y-85965467D01*
X145944436Y-86035730D01*
X145948625Y-86104554D01*
X145958076Y-86171595D01*
X145972702Y-86236510D01*
X145992417Y-86298955D01*
X146017134Y-86358588D01*
X146046766Y-86415064D01*
X146067355Y-86448023D01*
X146094295Y-86485360D01*
X146125182Y-86522788D01*
X146158556Y-86558709D01*
X146192956Y-86591526D01*
X146217715Y-86612475D01*
X146273383Y-86653058D01*
X146333315Y-86689434D01*
X146397383Y-86721557D01*
X146465462Y-86749379D01*
X146537427Y-86772857D01*
X146613151Y-86791943D01*
X146692509Y-86806591D01*
X146775376Y-86816756D01*
X146775783Y-86816794D01*
X146804743Y-86820296D01*
X146828347Y-86825018D01*
X146847205Y-86831191D01*
X146861926Y-86839047D01*
X146873120Y-86848817D01*
X146878368Y-86855649D01*
X146881119Y-86860050D01*
X146883479Y-86864615D01*
X146885475Y-86869815D01*
X146887134Y-86876122D01*
X146888485Y-86884008D01*
X146889554Y-86893946D01*
X146890369Y-86906407D01*
X146890957Y-86921864D01*
X146891345Y-86940788D01*
X146891560Y-86963652D01*
X146891631Y-86990928D01*
X146891584Y-87023087D01*
X146891447Y-87060602D01*
X146891360Y-87080014D01*
X146891179Y-87117852D01*
X146891005Y-87150126D01*
X146890817Y-87177320D01*
X146890600Y-87199917D01*
X146890335Y-87218402D01*
X146890003Y-87233257D01*
X146889589Y-87244967D01*
X146889073Y-87254016D01*
X146888437Y-87260886D01*
X146887665Y-87266062D01*
X146886738Y-87270028D01*
X146885638Y-87273267D01*
X146884348Y-87276262D01*
X146884120Y-87276759D01*
X146872736Y-87294481D01*
X146857008Y-87308957D01*
X146838603Y-87318809D01*
X146828646Y-87321816D01*
X146817109Y-87323779D01*
X146803176Y-87324710D01*
X146786033Y-87324621D01*
X146764861Y-87323523D01*
X146738846Y-87321428D01*
X146727620Y-87320383D01*
X146624944Y-87307902D01*
X146525648Y-87290458D01*
X146429752Y-87268057D01*
X146337277Y-87240708D01*
X146248241Y-87208416D01*
X146162665Y-87171188D01*
X146080569Y-87129031D01*
X146001972Y-87081951D01*
X145975467Y-87064429D01*
X145904674Y-87012918D01*
X145838468Y-86957509D01*
X145776942Y-86898349D01*
X145720188Y-86835585D01*
X145668299Y-86769363D01*
X145621366Y-86699833D01*
X145579482Y-86627139D01*
X145542740Y-86551430D01*
X145511230Y-86472853D01*
X145485047Y-86391555D01*
X145464282Y-86307683D01*
X145449675Y-86225878D01*
X145445849Y-86198614D01*
X145442788Y-86173990D01*
X145440415Y-86150774D01*
X145438652Y-86127732D01*
X145437421Y-86103630D01*
X145436645Y-86077235D01*
X145436247Y-86047314D01*
X145436147Y-86012633D01*
X145436148Y-86011083D01*
G36*
X145445531Y-99682308D02*
G01*
X145446173Y-99646844D01*
X145447360Y-99614895D01*
X145449186Y-99585199D01*
X145451747Y-99556496D01*
X145455138Y-99527522D01*
X145459455Y-99497019D01*
X145464792Y-99463723D01*
X145464960Y-99462721D01*
X145482747Y-99374230D01*
X145505892Y-99288427D01*
X145534265Y-99205453D01*
X145567738Y-99125449D01*
X145606184Y-99048557D01*
X145649473Y-98974916D01*
X145697478Y-98904669D01*
X145750070Y-98837957D01*
X145807122Y-98774919D01*
X145868504Y-98715699D01*
X145934089Y-98660436D01*
X146003749Y-98609271D01*
X146077354Y-98562347D01*
X146154778Y-98519803D01*
X146235891Y-98481781D01*
X146320565Y-98448423D01*
X146408672Y-98419868D01*
X146414611Y-98418154D01*
X146501016Y-98396263D01*
X146590366Y-98379112D01*
X146681785Y-98366750D01*
X146774399Y-98359228D01*
X146867334Y-98356596D01*
X146959714Y-98358905D01*
X147050666Y-98366203D01*
X147130905Y-98377132D01*
X147214796Y-98393697D01*
X147297884Y-98415576D01*
X147379486Y-98442504D01*
X147458923Y-98474214D01*
X147535510Y-98510441D01*
X147608568Y-98550919D01*
X147659544Y-98583177D01*
X147730032Y-98633924D01*
X147796268Y-98688916D01*
X147858165Y-98748012D01*
X147915636Y-98811073D01*
X147968594Y-98877959D01*
X148016951Y-98948530D01*
X148060621Y-99022646D01*
X148099517Y-99100167D01*
X148133551Y-99180952D01*
X148162636Y-99264863D01*
X148186686Y-99351758D01*
X148205614Y-99441499D01*
X148210231Y-99468650D01*
X148212312Y-99481543D01*
X148214210Y-99493391D01*
X148215934Y-99504511D01*
X148217493Y-99515220D01*
X148218897Y-99525837D01*
X148220156Y-99536679D01*
X148221278Y-99548063D01*
X148222274Y-99560308D01*
X148223151Y-99573731D01*
X148223920Y-99588649D01*
X148224591Y-99605381D01*
X148225172Y-99624243D01*
X148225672Y-99645554D01*
X148226102Y-99669631D01*
X148226470Y-99696791D01*
X148226786Y-99727354D01*
X148227059Y-99761635D01*
X148227299Y-99799953D01*
X148227514Y-99842625D01*
X148227715Y-99889970D01*
X148227911Y-99942304D01*
X148228110Y-99999945D01*
X148228323Y-100063212D01*
X148228398Y-100085404D01*
X148230060Y-100576773D01*
X148530929Y-100577668D01*
X148586178Y-100577812D01*
X148635796Y-100577891D01*
X148680200Y-100577895D01*
X148719807Y-100577814D01*
X148755033Y-100577640D01*
X148786295Y-100577362D01*
X148814009Y-100576970D01*
X148838593Y-100576456D01*
X148860462Y-100575809D01*
X148880035Y-100575020D01*
X148897726Y-100574080D01*
X148913953Y-100572978D01*
X148929133Y-100571704D01*
X148943681Y-100570250D01*
X148958016Y-100568606D01*
X148966004Y-100567612D01*
X149043140Y-100555215D01*
X149117076Y-100538172D01*
X149187663Y-100516598D01*
X149254750Y-100490610D01*
X149318188Y-100460321D01*
X149377828Y-100425849D01*
X149433519Y-100387308D01*
X149485112Y-100344815D01*
X149532458Y-100298484D01*
X149575405Y-100248432D01*
X149613805Y-100194774D01*
X149647508Y-100137625D01*
X149676365Y-100077102D01*
X149700224Y-100013319D01*
X149705411Y-99996812D01*
X149723100Y-99928777D01*
X149735607Y-99859202D01*
X149742936Y-99788762D01*
X149745088Y-99718130D01*
X149742069Y-99647980D01*
X149733880Y-99578985D01*
X149720527Y-99511819D01*
X149702618Y-99448979D01*
X149678406Y-99385245D01*
X149649031Y-99324598D01*
X149614607Y-99267165D01*
X149575244Y-99213075D01*
X149531056Y-99162457D01*
X149482155Y-99115438D01*
X149428653Y-99072148D01*
X149370662Y-99032714D01*
X149308296Y-98997265D01*
X149306502Y-98996338D01*
X149241245Y-98965493D01*
X149173882Y-98939188D01*
X149103972Y-98917313D01*
X149031076Y-98899758D01*
X148954754Y-98886411D01*
X148874567Y-98877163D01*
X148815697Y-98873058D01*
X148796215Y-98871971D01*
X148781635Y-98870923D01*
X148770816Y-98869734D01*
X148762615Y-98868227D01*
X148755892Y-98866221D01*
X148749504Y-98863540D01*
X148746880Y-98862283D01*
X148729488Y-98850701D01*
X148716746Y-98835254D01*
X148710624Y-98822214D01*
X148709760Y-98818644D01*
X148709018Y-98812863D01*
X148708390Y-98804462D01*
X148707867Y-98793033D01*
X148707440Y-98778166D01*
X148707101Y-98759453D01*
X148706843Y-98736485D01*
X148706655Y-98708854D01*
X148706529Y-98676150D01*
X148706458Y-98637966D01*
X148706443Y-98621663D01*
X148706415Y-98581166D01*
X148706423Y-98546253D01*
X148706510Y-98516461D01*
X148706720Y-98491328D01*
X148707096Y-98470390D01*
X148707683Y-98453185D01*
X148708523Y-98439249D01*
X148709662Y-98428119D01*
X148711142Y-98419333D01*
X148713008Y-98412426D01*
X148715303Y-98406937D01*
X148718070Y-98402402D01*
X148721355Y-98398358D01*
X148725200Y-98394342D01*
X148728213Y-98391335D01*
X148737752Y-98382517D01*
X148746960Y-98376026D01*
X148756995Y-98371536D01*
X148769012Y-98368723D01*
X148784169Y-98367261D01*
X148803621Y-98366825D01*
X148815167Y-98366889D01*
X148851542Y-98367994D01*
X148892233Y-98370476D01*
X148935700Y-98374202D01*
X148980402Y-98379040D01*
X149023810Y-98384718D01*
X149121449Y-98401252D01*
X149215987Y-98422492D01*
X149307295Y-98448349D01*
X149395247Y-98478733D01*
X149479714Y-98513552D01*
X149560568Y-98552718D01*
X149637681Y-98596139D01*
X149710925Y-98643725D01*
X149780172Y-98695386D01*
X149845295Y-98751031D01*
X149906165Y-98810571D01*
X149962655Y-98873915D01*
X150014636Y-98940972D01*
X150061981Y-99011653D01*
X150104561Y-99085867D01*
X150142249Y-99163523D01*
X150148926Y-99178847D01*
X150178917Y-99256307D01*
X150204098Y-99337171D01*
X150224382Y-99421064D01*
X150239680Y-99507610D01*
X150249904Y-99596436D01*
X150251388Y-99615202D01*
X150252495Y-99635283D01*
X150253293Y-99660020D01*
X150253784Y-99688029D01*
X150253971Y-99717927D01*
X150253855Y-99748328D01*
X150253439Y-99777849D01*
X150252724Y-99805107D01*
X150251711Y-99828718D01*
X150251078Y-99838964D01*
X150241780Y-99931352D01*
X150227166Y-100021218D01*
X150207328Y-100108425D01*
X150182355Y-100192836D01*
X150152337Y-100274311D01*
X150117367Y-100352714D01*
X150077532Y-100427908D01*
X150032925Y-100499753D01*
X149983636Y-100568113D01*
X149929755Y-100632850D01*
X149871372Y-100693825D01*
X149808577Y-100750903D01*
X149741463Y-100803944D01*
X149670117Y-100852811D01*
X149594632Y-100897366D01*
X149536346Y-100927391D01*
X149476090Y-100955096D01*
X149415651Y-100979747D01*
X149354299Y-101001535D01*
X149291307Y-101020647D01*
X149225945Y-101037275D01*
X149157484Y-101051607D01*
X149085196Y-101063833D01*
X149008352Y-101074144D01*
X148946703Y-101080790D01*
X148940292Y-101081122D01*
X148928107Y-101081445D01*
X148910421Y-101081760D01*
X148887510Y-101082067D01*
X148859645Y-101082365D01*
X148827101Y-101082653D01*
X148790151Y-101082931D01*
X148749069Y-101083200D01*
X148704130Y-101083458D01*
X148655605Y-101083706D01*
X148603770Y-101083942D01*
X148548897Y-101084167D01*
X148491261Y-101084380D01*
X148431135Y-101084582D01*
X148368792Y-101084771D01*
X148304507Y-101084947D01*
X148238553Y-101085110D01*
X148171204Y-101085259D01*
X148102734Y-101085395D01*
X148033415Y-101085517D01*
X147963522Y-101085624D01*
X147893329Y-101085716D01*
X147823108Y-101085793D01*
X147753135Y-101085855D01*
X147720548Y-101085876D01*
X147720548Y-100578572D01*
X147720536Y-100133173D01*
X147720512Y-100071911D01*
X147720447Y-100013661D01*
X147720342Y-99958680D01*
X147720198Y-99907222D01*
X147720017Y-99859543D01*
X147719800Y-99815899D01*
X147719550Y-99776544D01*
X147719267Y-99741734D01*
X147718953Y-99711724D01*
X147718611Y-99686770D01*
X147718241Y-99667126D01*
X147717845Y-99653049D01*
X147717475Y-99645440D01*
X147709374Y-99568749D01*
X147696375Y-99495487D01*
X147678491Y-99425691D01*
X147655738Y-99359393D01*
X147628129Y-99296630D01*
X147595680Y-99237435D01*
X147558406Y-99181845D01*
X147516320Y-99129893D01*
X147486273Y-99097974D01*
X147459515Y-99072050D01*
X147434302Y-99049686D01*
X147408832Y-99029405D01*
X147381299Y-99009735D01*
X147365250Y-98999050D01*
X147309732Y-98966101D01*
X147251184Y-98937755D01*
X147189309Y-98913909D01*
X147123809Y-98894456D01*
X147054386Y-98879293D01*
X147000881Y-98870848D01*
X146982300Y-98868923D01*
X146958896Y-98867386D01*
X146931879Y-98866243D01*
X146902462Y-98865502D01*
X146871857Y-98865170D01*
X146841276Y-98865255D01*
X146811931Y-98865764D01*
X146785034Y-98866704D01*
X146761796Y-98868083D01*
X146748393Y-98869309D01*
X146668037Y-98880706D01*
X146591612Y-98896696D01*
X146519108Y-98917283D01*
X146450516Y-98942470D01*
X146385827Y-98972262D01*
X146325033Y-99006662D01*
X146268124Y-99045675D01*
X146215092Y-99089304D01*
X146184748Y-99118080D01*
X146140650Y-99165934D01*
X146101396Y-99216546D01*
X146066859Y-99270182D01*
X146036909Y-99327107D01*
X146011420Y-99387586D01*
X145990262Y-99451883D01*
X145973308Y-99520264D01*
X145962799Y-99577366D01*
X145961006Y-99589314D01*
X145959573Y-99600633D01*
X145958461Y-99612202D01*
X145957631Y-99624901D01*
X145957044Y-99639609D01*
X145956661Y-99657204D01*
X145956442Y-99678568D01*
X145956349Y-99704578D01*
X145956337Y-99722547D01*
X145956466Y-99757327D01*
X145956916Y-99787135D01*
X145957784Y-99813043D01*
X145959167Y-99836123D01*
X145961161Y-99857447D01*
X145963863Y-99878085D01*
X145967369Y-99899111D01*
X145971777Y-99921595D01*
X145976109Y-99941773D01*
X145994003Y-100009814D01*
X146016845Y-100074433D01*
X146044543Y-100135547D01*
X146077003Y-100193078D01*
X146114135Y-100246942D01*
X146155845Y-100297060D01*
X146202040Y-100343349D01*
X146252628Y-100385729D01*
X146307516Y-100424119D01*
X146366612Y-100458437D01*
X146429823Y-100488601D01*
X146497057Y-100514532D01*
X146568221Y-100536148D01*
X146643222Y-100553367D01*
X146681289Y-100560165D01*
X146694154Y-100562263D01*
X146705940Y-100564169D01*
X146716980Y-100565894D01*
X146727602Y-100567448D01*
X146738138Y-100568840D01*
X146748919Y-100570080D01*
X146760274Y-100571179D01*
X146772534Y-100572145D01*
X146786031Y-100572989D01*
X146801093Y-100573721D01*
X146818052Y-100574350D01*
X146837239Y-100574886D01*
X146858983Y-100575339D01*
X146883616Y-100575720D01*
X146911468Y-100576037D01*
X146942868Y-100576301D01*
X146978149Y-100576521D01*
X147017640Y-100576708D01*
X147061672Y-100576871D01*
X147110576Y-100577020D01*
X147164681Y-100577165D01*
X147224318Y-100577315D01*
X147260173Y-100577405D01*
X147720548Y-100578572D01*
X147720548Y-101085876D01*
X147683682Y-101085901D01*
X147615023Y-101085930D01*
X147547431Y-101085943D01*
X147481182Y-101085939D01*
X147416547Y-101085918D01*
X147353801Y-101085880D01*
X147293218Y-101085823D01*
X147235070Y-101085748D01*
X147179633Y-101085655D01*
X147127179Y-101085543D01*
X147077982Y-101085411D01*
X147032316Y-101085260D01*
X146990454Y-101085088D01*
X146952670Y-101084897D01*
X146919239Y-101084685D01*
X146890432Y-101084451D01*
X146866525Y-101084197D01*
X146847791Y-101083920D01*
X146834503Y-101083622D01*
X146829622Y-101083449D01*
X146728356Y-101076627D01*
X146630878Y-101065239D01*
X146536949Y-101049226D01*
X146446328Y-101028533D01*
X146358777Y-101003102D01*
X146274054Y-100972878D01*
X146191920Y-100937802D01*
X146170790Y-100927799D01*
X146090619Y-100885888D01*
X146014754Y-100839754D01*
X145943266Y-100789496D01*
X145876228Y-100735212D01*
X145813713Y-100676999D01*
X145755793Y-100614955D01*
X145702540Y-100549178D01*
X145654028Y-100479764D01*
X145610329Y-100406813D01*
X145571514Y-100330421D01*
X145537658Y-100250687D01*
X145508831Y-100167707D01*
X145485108Y-100081581D01*
X145466559Y-99992404D01*
X145463611Y-99975035D01*
X145458521Y-99942406D01*
X145454415Y-99912253D01*
X145451202Y-99883321D01*
X145448790Y-99854355D01*
X145447089Y-99824101D01*
X145446009Y-99791304D01*
X145445459Y-99754708D01*
X145445339Y-99722547D01*
X145445531Y-99682308D01*
G37*
X145445531Y-99682308D02*
X145446173Y-99646844D01*
X145447360Y-99614895D01*
X145449186Y-99585199D01*
X145451747Y-99556496D01*
X145455138Y-99527522D01*
X145459455Y-99497019D01*
X145464792Y-99463723D01*
X145464960Y-99462721D01*
X145482747Y-99374230D01*
X145505892Y-99288427D01*
X145534265Y-99205453D01*
X145567738Y-99125449D01*
X145606184Y-99048557D01*
X145649473Y-98974916D01*
X145697478Y-98904669D01*
X145750070Y-98837957D01*
X145807122Y-98774919D01*
X145868504Y-98715699D01*
X145934089Y-98660436D01*
X146003749Y-98609271D01*
X146077354Y-98562347D01*
X146154778Y-98519803D01*
X146235891Y-98481781D01*
X146320565Y-98448423D01*
X146408672Y-98419868D01*
X146414611Y-98418154D01*
X146501016Y-98396263D01*
X146590366Y-98379112D01*
X146681785Y-98366750D01*
X146774399Y-98359228D01*
X146867334Y-98356596D01*
X146959714Y-98358905D01*
X147050666Y-98366203D01*
X147130905Y-98377132D01*
X147214796Y-98393697D01*
X147297884Y-98415576D01*
X147379486Y-98442504D01*
X147458923Y-98474214D01*
X147535510Y-98510441D01*
X147608568Y-98550919D01*
X147659544Y-98583177D01*
X147730032Y-98633924D01*
X147796268Y-98688916D01*
X147858165Y-98748012D01*
X147915636Y-98811073D01*
X147968594Y-98877959D01*
X148016951Y-98948530D01*
X148060621Y-99022646D01*
X148099517Y-99100167D01*
X148133551Y-99180952D01*
X148162636Y-99264863D01*
X148186686Y-99351758D01*
X148205614Y-99441499D01*
X148210231Y-99468650D01*
X148212312Y-99481543D01*
X148214210Y-99493391D01*
X148215934Y-99504511D01*
X148217493Y-99515220D01*
X148218897Y-99525837D01*
X148220156Y-99536679D01*
X148221278Y-99548063D01*
X148222274Y-99560308D01*
X148223151Y-99573731D01*
X148223920Y-99588649D01*
X148224591Y-99605381D01*
X148225172Y-99624243D01*
X148225672Y-99645554D01*
X148226102Y-99669631D01*
X148226470Y-99696791D01*
X148226786Y-99727354D01*
X148227059Y-99761635D01*
X148227299Y-99799953D01*
X148227514Y-99842625D01*
X148227715Y-99889970D01*
X148227911Y-99942304D01*
X148228110Y-99999945D01*
X148228323Y-100063212D01*
X148228398Y-100085404D01*
X148230060Y-100576773D01*
X148530929Y-100577668D01*
X148586178Y-100577812D01*
X148635796Y-100577891D01*
X148680200Y-100577895D01*
X148719807Y-100577814D01*
X148755033Y-100577640D01*
X148786295Y-100577362D01*
X148814009Y-100576970D01*
X148838593Y-100576456D01*
X148860462Y-100575809D01*
X148880035Y-100575020D01*
X148897726Y-100574080D01*
X148913953Y-100572978D01*
X148929133Y-100571704D01*
X148943681Y-100570250D01*
X148958016Y-100568606D01*
X148966004Y-100567612D01*
X149043140Y-100555215D01*
X149117076Y-100538172D01*
X149187663Y-100516598D01*
X149254750Y-100490610D01*
X149318188Y-100460321D01*
X149377828Y-100425849D01*
X149433519Y-100387308D01*
X149485112Y-100344815D01*
X149532458Y-100298484D01*
X149575405Y-100248432D01*
X149613805Y-100194774D01*
X149647508Y-100137625D01*
X149676365Y-100077102D01*
X149700224Y-100013319D01*
X149705411Y-99996812D01*
X149723100Y-99928777D01*
X149735607Y-99859202D01*
X149742936Y-99788762D01*
X149745088Y-99718130D01*
X149742069Y-99647980D01*
X149733880Y-99578985D01*
X149720527Y-99511819D01*
X149702618Y-99448979D01*
X149678406Y-99385245D01*
X149649031Y-99324598D01*
X149614607Y-99267165D01*
X149575244Y-99213075D01*
X149531056Y-99162457D01*
X149482155Y-99115438D01*
X149428653Y-99072148D01*
X149370662Y-99032714D01*
X149308296Y-98997265D01*
X149306502Y-98996338D01*
X149241245Y-98965493D01*
X149173882Y-98939188D01*
X149103972Y-98917313D01*
X149031076Y-98899758D01*
X148954754Y-98886411D01*
X148874567Y-98877163D01*
X148815697Y-98873058D01*
X148796215Y-98871971D01*
X148781635Y-98870923D01*
X148770816Y-98869734D01*
X148762615Y-98868227D01*
X148755892Y-98866221D01*
X148749504Y-98863540D01*
X148746880Y-98862283D01*
X148729488Y-98850701D01*
X148716746Y-98835254D01*
X148710624Y-98822214D01*
X148709760Y-98818644D01*
X148709018Y-98812863D01*
X148708390Y-98804462D01*
X148707867Y-98793033D01*
X148707440Y-98778166D01*
X148707101Y-98759453D01*
X148706843Y-98736485D01*
X148706655Y-98708854D01*
X148706529Y-98676150D01*
X148706458Y-98637966D01*
X148706443Y-98621663D01*
X148706415Y-98581166D01*
X148706423Y-98546253D01*
X148706510Y-98516461D01*
X148706720Y-98491328D01*
X148707096Y-98470390D01*
X148707683Y-98453185D01*
X148708523Y-98439249D01*
X148709662Y-98428119D01*
X148711142Y-98419333D01*
X148713008Y-98412426D01*
X148715303Y-98406937D01*
X148718070Y-98402402D01*
X148721355Y-98398358D01*
X148725200Y-98394342D01*
X148728213Y-98391335D01*
X148737752Y-98382517D01*
X148746960Y-98376026D01*
X148756995Y-98371536D01*
X148769012Y-98368723D01*
X148784169Y-98367261D01*
X148803621Y-98366825D01*
X148815167Y-98366889D01*
X148851542Y-98367994D01*
X148892233Y-98370476D01*
X148935700Y-98374202D01*
X148980402Y-98379040D01*
X149023810Y-98384718D01*
X149121449Y-98401252D01*
X149215987Y-98422492D01*
X149307295Y-98448349D01*
X149395247Y-98478733D01*
X149479714Y-98513552D01*
X149560568Y-98552718D01*
X149637681Y-98596139D01*
X149710925Y-98643725D01*
X149780172Y-98695386D01*
X149845295Y-98751031D01*
X149906165Y-98810571D01*
X149962655Y-98873915D01*
X150014636Y-98940972D01*
X150061981Y-99011653D01*
X150104561Y-99085867D01*
X150142249Y-99163523D01*
X150148926Y-99178847D01*
X150178917Y-99256307D01*
X150204098Y-99337171D01*
X150224382Y-99421064D01*
X150239680Y-99507610D01*
X150249904Y-99596436D01*
X150251388Y-99615202D01*
X150252495Y-99635283D01*
X150253293Y-99660020D01*
X150253784Y-99688029D01*
X150253971Y-99717927D01*
X150253855Y-99748328D01*
X150253439Y-99777849D01*
X150252724Y-99805107D01*
X150251711Y-99828718D01*
X150251078Y-99838964D01*
X150241780Y-99931352D01*
X150227166Y-100021218D01*
X150207328Y-100108425D01*
X150182355Y-100192836D01*
X150152337Y-100274311D01*
X150117367Y-100352714D01*
X150077532Y-100427908D01*
X150032925Y-100499753D01*
X149983636Y-100568113D01*
X149929755Y-100632850D01*
X149871372Y-100693825D01*
X149808577Y-100750903D01*
X149741463Y-100803944D01*
X149670117Y-100852811D01*
X149594632Y-100897366D01*
X149536346Y-100927391D01*
X149476090Y-100955096D01*
X149415651Y-100979747D01*
X149354299Y-101001535D01*
X149291307Y-101020647D01*
X149225945Y-101037275D01*
X149157484Y-101051607D01*
X149085196Y-101063833D01*
X149008352Y-101074144D01*
X148946703Y-101080790D01*
X148940292Y-101081122D01*
X148928107Y-101081445D01*
X148910421Y-101081760D01*
X148887510Y-101082067D01*
X148859645Y-101082365D01*
X148827101Y-101082653D01*
X148790151Y-101082931D01*
X148749069Y-101083200D01*
X148704130Y-101083458D01*
X148655605Y-101083706D01*
X148603770Y-101083942D01*
X148548897Y-101084167D01*
X148491261Y-101084380D01*
X148431135Y-101084582D01*
X148368792Y-101084771D01*
X148304507Y-101084947D01*
X148238553Y-101085110D01*
X148171204Y-101085259D01*
X148102734Y-101085395D01*
X148033415Y-101085517D01*
X147963522Y-101085624D01*
X147893329Y-101085716D01*
X147823108Y-101085793D01*
X147753135Y-101085855D01*
X147720548Y-101085876D01*
X147720548Y-100578572D01*
X147720536Y-100133173D01*
X147720512Y-100071911D01*
X147720447Y-100013661D01*
X147720342Y-99958680D01*
X147720198Y-99907222D01*
X147720017Y-99859543D01*
X147719800Y-99815899D01*
X147719550Y-99776544D01*
X147719267Y-99741734D01*
X147718953Y-99711724D01*
X147718611Y-99686770D01*
X147718241Y-99667126D01*
X147717845Y-99653049D01*
X147717475Y-99645440D01*
X147709374Y-99568749D01*
X147696375Y-99495487D01*
X147678491Y-99425691D01*
X147655738Y-99359393D01*
X147628129Y-99296630D01*
X147595680Y-99237435D01*
X147558406Y-99181845D01*
X147516320Y-99129893D01*
X147486273Y-99097974D01*
X147459515Y-99072050D01*
X147434302Y-99049686D01*
X147408832Y-99029405D01*
X147381299Y-99009735D01*
X147365250Y-98999050D01*
X147309732Y-98966101D01*
X147251184Y-98937755D01*
X147189309Y-98913909D01*
X147123809Y-98894456D01*
X147054386Y-98879293D01*
X147000881Y-98870848D01*
X146982300Y-98868923D01*
X146958896Y-98867386D01*
X146931879Y-98866243D01*
X146902462Y-98865502D01*
X146871857Y-98865170D01*
X146841276Y-98865255D01*
X146811931Y-98865764D01*
X146785034Y-98866704D01*
X146761796Y-98868083D01*
X146748393Y-98869309D01*
X146668037Y-98880706D01*
X146591612Y-98896696D01*
X146519108Y-98917283D01*
X146450516Y-98942470D01*
X146385827Y-98972262D01*
X146325033Y-99006662D01*
X146268124Y-99045675D01*
X146215092Y-99089304D01*
X146184748Y-99118080D01*
X146140650Y-99165934D01*
X146101396Y-99216546D01*
X146066859Y-99270182D01*
X146036909Y-99327107D01*
X146011420Y-99387586D01*
X145990262Y-99451883D01*
X145973308Y-99520264D01*
X145962799Y-99577366D01*
X145961006Y-99589314D01*
X145959573Y-99600633D01*
X145958461Y-99612202D01*
X145957631Y-99624901D01*
X145957044Y-99639609D01*
X145956661Y-99657204D01*
X145956442Y-99678568D01*
X145956349Y-99704578D01*
X145956337Y-99722547D01*
X145956466Y-99757327D01*
X145956916Y-99787135D01*
X145957784Y-99813043D01*
X145959167Y-99836123D01*
X145961161Y-99857447D01*
X145963863Y-99878085D01*
X145967369Y-99899111D01*
X145971777Y-99921595D01*
X145976109Y-99941773D01*
X145994003Y-100009814D01*
X146016845Y-100074433D01*
X146044543Y-100135547D01*
X146077003Y-100193078D01*
X146114135Y-100246942D01*
X146155845Y-100297060D01*
X146202040Y-100343349D01*
X146252628Y-100385729D01*
X146307516Y-100424119D01*
X146366612Y-100458437D01*
X146429823Y-100488601D01*
X146497057Y-100514532D01*
X146568221Y-100536148D01*
X146643222Y-100553367D01*
X146681289Y-100560165D01*
X146694154Y-100562263D01*
X146705940Y-100564169D01*
X146716980Y-100565894D01*
X146727602Y-100567448D01*
X146738138Y-100568840D01*
X146748919Y-100570080D01*
X146760274Y-100571179D01*
X146772534Y-100572145D01*
X146786031Y-100572989D01*
X146801093Y-100573721D01*
X146818052Y-100574350D01*
X146837239Y-100574886D01*
X146858983Y-100575339D01*
X146883616Y-100575720D01*
X146911468Y-100576037D01*
X146942868Y-100576301D01*
X146978149Y-100576521D01*
X147017640Y-100576708D01*
X147061672Y-100576871D01*
X147110576Y-100577020D01*
X147164681Y-100577165D01*
X147224318Y-100577315D01*
X147260173Y-100577405D01*
X147720548Y-100578572D01*
X147720548Y-101085876D01*
X147683682Y-101085901D01*
X147615023Y-101085930D01*
X147547431Y-101085943D01*
X147481182Y-101085939D01*
X147416547Y-101085918D01*
X147353801Y-101085880D01*
X147293218Y-101085823D01*
X147235070Y-101085748D01*
X147179633Y-101085655D01*
X147127179Y-101085543D01*
X147077982Y-101085411D01*
X147032316Y-101085260D01*
X146990454Y-101085088D01*
X146952670Y-101084897D01*
X146919239Y-101084685D01*
X146890432Y-101084451D01*
X146866525Y-101084197D01*
X146847791Y-101083920D01*
X146834503Y-101083622D01*
X146829622Y-101083449D01*
X146728356Y-101076627D01*
X146630878Y-101065239D01*
X146536949Y-101049226D01*
X146446328Y-101028533D01*
X146358777Y-101003102D01*
X146274054Y-100972878D01*
X146191920Y-100937802D01*
X146170790Y-100927799D01*
X146090619Y-100885888D01*
X146014754Y-100839754D01*
X145943266Y-100789496D01*
X145876228Y-100735212D01*
X145813713Y-100676999D01*
X145755793Y-100614955D01*
X145702540Y-100549178D01*
X145654028Y-100479764D01*
X145610329Y-100406813D01*
X145571514Y-100330421D01*
X145537658Y-100250687D01*
X145508831Y-100167707D01*
X145485108Y-100081581D01*
X145466559Y-99992404D01*
X145463611Y-99975035D01*
X145458521Y-99942406D01*
X145454415Y-99912253D01*
X145451202Y-99883321D01*
X145448790Y-99854355D01*
X145447089Y-99824101D01*
X145446009Y-99791304D01*
X145445459Y-99754708D01*
X145445339Y-99722547D01*
X145445531Y-99682308D01*
G36*
X144700227Y-92600617D02*
G01*
X144700242Y-92544440D01*
X144700267Y-92491496D01*
X144700303Y-92442027D01*
X144700349Y-92396275D01*
X144700404Y-92354482D01*
X144700470Y-92316888D01*
X144700545Y-92283736D01*
X144700629Y-92255267D01*
X144700723Y-92231722D01*
X144700825Y-92213343D01*
X144700937Y-92200371D01*
X144701056Y-92193048D01*
X144701139Y-92191432D01*
X144704364Y-92186711D01*
X144711531Y-92180117D01*
X144721353Y-92172812D01*
X144723144Y-92171616D01*
X144727467Y-92168687D01*
X144736536Y-92162467D01*
X144750127Y-92153110D01*
X144768019Y-92140773D01*
X144789985Y-92125609D01*
X144815804Y-92107772D01*
X144845252Y-92087419D01*
X144878104Y-92064702D01*
X144914138Y-92039778D01*
X144953129Y-92012801D01*
X144994854Y-91983924D01*
X145039090Y-91953304D01*
X145085613Y-91921095D01*
X145134198Y-91887451D01*
X145184624Y-91852528D01*
X145236665Y-91816479D01*
X145290099Y-91779460D01*
X145344702Y-91741625D01*
X145345346Y-91741179D01*
X145418127Y-91690762D01*
X145486040Y-91643755D01*
X145549168Y-91600100D01*
X145607598Y-91559739D01*
X145661414Y-91522614D01*
X145710701Y-91488667D01*
X145755544Y-91457839D01*
X145796028Y-91430073D01*
X145832239Y-91405310D01*
X145864261Y-91383492D01*
X145892179Y-91364561D01*
X145916079Y-91348458D01*
X145936045Y-91335126D01*
X145952163Y-91324506D01*
X145964517Y-91316541D01*
X145973193Y-91311171D01*
X145977746Y-91308601D01*
X146016883Y-91291962D01*
X146058767Y-91280151D01*
X146102505Y-91273166D01*
X146147204Y-91271003D01*
X146191971Y-91273660D01*
X146235915Y-91281135D01*
X146278142Y-91293425D01*
X146315865Y-91309562D01*
X146319959Y-91312078D01*
X146328852Y-91317896D01*
X146342398Y-91326917D01*
X146360452Y-91339043D01*
X146382870Y-91354173D01*
X146409508Y-91372209D01*
X146440221Y-91393051D01*
X146474864Y-91416600D01*
X146513293Y-91442757D01*
X146555364Y-91471423D01*
X146600931Y-91502498D01*
X146649851Y-91535883D01*
X146701979Y-91571480D01*
X146757170Y-91609188D01*
X146815279Y-91648909D01*
X146876164Y-91690543D01*
X146939677Y-91733991D01*
X147005676Y-91779154D01*
X147074016Y-91825933D01*
X147144552Y-91874228D01*
X147217140Y-91923941D01*
X147291634Y-91974971D01*
X147367891Y-92027220D01*
X147445767Y-92080589D01*
X147525116Y-92134979D01*
X147605793Y-92190289D01*
X147687656Y-92246421D01*
X147770558Y-92303276D01*
X147854356Y-92360755D01*
X147938904Y-92418757D01*
X148024059Y-92477185D01*
X148109676Y-92535938D01*
X148195610Y-92594919D01*
X148281717Y-92654026D01*
X148367852Y-92713162D01*
X148453871Y-92772226D01*
X148539630Y-92831120D01*
X148624983Y-92889745D01*
X148709786Y-92948001D01*
X148793894Y-93005789D01*
X148877164Y-93063010D01*
X148959451Y-93119564D01*
X149040609Y-93175353D01*
X149120495Y-93230277D01*
X149198964Y-93284237D01*
X149275872Y-93337133D01*
X149351074Y-93388867D01*
X149424425Y-93439339D01*
X149495780Y-93488451D01*
X149564997Y-93536102D01*
X149631929Y-93582194D01*
X149696432Y-93626627D01*
X149758363Y-93669302D01*
X149817575Y-93710120D01*
X149873926Y-93748982D01*
X149927269Y-93785789D01*
X149977462Y-93820440D01*
X150024358Y-93852838D01*
X150067814Y-93882883D01*
X150107685Y-93910475D01*
X150143827Y-93935516D01*
X150176095Y-93957905D01*
X150204345Y-93977545D01*
X150228431Y-93994335D01*
X150248210Y-94008177D01*
X150263537Y-94018972D01*
X150274268Y-94026619D01*
X150280257Y-94031020D01*
X150281553Y-94032123D01*
X150279529Y-94037955D01*
X150276714Y-94041195D01*
X150275735Y-94041434D01*
X150273310Y-94041664D01*
X150269332Y-94041885D01*
X150263690Y-94042097D01*
X150256277Y-94042301D01*
X150246984Y-94042496D01*
X150235700Y-94042684D01*
X150222318Y-94042863D01*
X150206728Y-94043034D01*
X150188822Y-94043198D01*
X150168490Y-94043353D01*
X150145623Y-94043502D01*
X150120113Y-94043643D01*
X150091850Y-94043778D01*
X150060726Y-94043905D01*
X150026631Y-94044026D01*
X149989457Y-94044140D01*
X149949095Y-94044247D01*
X149905435Y-94044349D01*
X149858369Y-94044444D01*
X149807788Y-94044534D01*
X149753582Y-94044618D01*
X149695643Y-94044696D01*
X149633863Y-94044769D01*
X149568130Y-94044836D01*
X149498338Y-94044899D01*
X149424377Y-94044956D01*
X149346138Y-94045009D01*
X149263511Y-94045057D01*
X149176389Y-94045101D01*
X149084662Y-94045141D01*
X148988220Y-94045176D01*
X148886956Y-94045208D01*
X148780760Y-94045236D01*
X148669523Y-94045260D01*
X148553137Y-94045281D01*
X148431491Y-94045298D01*
X148304478Y-94045313D01*
X148171989Y-94045324D01*
X148033913Y-94045333D01*
X147890143Y-94045339D01*
X147740570Y-94045343D01*
X147585083Y-94045345D01*
X147392704Y-94045345D01*
X147244368Y-94045344D01*
X147101845Y-94045342D01*
X146965020Y-94045340D01*
X146833774Y-94045336D01*
X146707992Y-94045331D01*
X146587555Y-94045324D01*
X146472347Y-94045314D01*
X146362251Y-94045303D01*
X146257150Y-94045289D01*
X146156927Y-94045273D01*
X146061465Y-94045253D01*
X145970648Y-94045230D01*
X145884357Y-94045204D01*
X145802477Y-94045174D01*
X145724890Y-94045140D01*
X145651480Y-94045102D01*
X145582129Y-94045059D01*
X145516720Y-94045012D01*
X145455137Y-94044960D01*
X145397263Y-94044903D01*
X145342980Y-94044840D01*
X145292172Y-94044771D01*
X145244721Y-94044697D01*
X145200511Y-94044617D01*
X145159425Y-94044530D01*
X145121345Y-94044436D01*
X145086156Y-94044336D01*
X145053739Y-94044228D01*
X145023979Y-94044114D01*
X144996757Y-94043991D01*
X144971958Y-94043861D01*
X144949463Y-94043722D01*
X144929157Y-94043576D01*
X144910922Y-94043420D01*
X144894641Y-94043256D01*
X144880197Y-94043083D01*
X144867474Y-94042900D01*
X144856354Y-94042708D01*
X144846720Y-94042506D01*
X144838456Y-94042294D01*
X144831445Y-94042072D01*
X144825568Y-94041839D01*
X144820711Y-94041596D01*
X144816755Y-94041341D01*
X144813584Y-94041075D01*
X144811081Y-94040798D01*
X144809128Y-94040509D01*
X144807609Y-94040208D01*
X144806408Y-94039895D01*
X144805596Y-94039635D01*
X144777129Y-94027704D01*
X144753661Y-94012935D01*
X144734585Y-93994759D01*
X144719295Y-93972609D01*
X144708091Y-93948339D01*
X144701274Y-93930440D01*
X144700435Y-93064119D01*
X144700371Y-92992067D01*
X144700318Y-92921559D01*
X144700278Y-92852835D01*
X144700248Y-92786138D01*
X144700230Y-92721708D01*
X144700223Y-92659787D01*
X144700227Y-92600617D01*
G37*
X144700227Y-92600617D02*
X144700242Y-92544440D01*
X144700267Y-92491496D01*
X144700303Y-92442027D01*
X144700349Y-92396275D01*
X144700404Y-92354482D01*
X144700470Y-92316888D01*
X144700545Y-92283736D01*
X144700629Y-92255267D01*
X144700723Y-92231722D01*
X144700825Y-92213343D01*
X144700937Y-92200371D01*
X144701056Y-92193048D01*
X144701139Y-92191432D01*
X144704364Y-92186711D01*
X144711531Y-92180117D01*
X144721353Y-92172812D01*
X144723144Y-92171616D01*
X144727467Y-92168687D01*
X144736536Y-92162467D01*
X144750127Y-92153110D01*
X144768019Y-92140773D01*
X144789985Y-92125609D01*
X144815804Y-92107772D01*
X144845252Y-92087419D01*
X144878104Y-92064702D01*
X144914138Y-92039778D01*
X144953129Y-92012801D01*
X144994854Y-91983924D01*
X145039090Y-91953304D01*
X145085613Y-91921095D01*
X145134198Y-91887451D01*
X145184624Y-91852528D01*
X145236665Y-91816479D01*
X145290099Y-91779460D01*
X145344702Y-91741625D01*
X145345346Y-91741179D01*
X145418127Y-91690762D01*
X145486040Y-91643755D01*
X145549168Y-91600100D01*
X145607598Y-91559739D01*
X145661414Y-91522614D01*
X145710701Y-91488667D01*
X145755544Y-91457839D01*
X145796028Y-91430073D01*
X145832239Y-91405310D01*
X145864261Y-91383492D01*
X145892179Y-91364561D01*
X145916079Y-91348458D01*
X145936045Y-91335126D01*
X145952163Y-91324506D01*
X145964517Y-91316541D01*
X145973193Y-91311171D01*
X145977746Y-91308601D01*
X146016883Y-91291962D01*
X146058767Y-91280151D01*
X146102505Y-91273166D01*
X146147204Y-91271003D01*
X146191971Y-91273660D01*
X146235915Y-91281135D01*
X146278142Y-91293425D01*
X146315865Y-91309562D01*
X146319959Y-91312078D01*
X146328852Y-91317896D01*
X146342398Y-91326917D01*
X146360452Y-91339043D01*
X146382870Y-91354173D01*
X146409508Y-91372209D01*
X146440221Y-91393051D01*
X146474864Y-91416600D01*
X146513293Y-91442757D01*
X146555364Y-91471423D01*
X146600931Y-91502498D01*
X146649851Y-91535883D01*
X146701979Y-91571480D01*
X146757170Y-91609188D01*
X146815279Y-91648909D01*
X146876164Y-91690543D01*
X146939677Y-91733991D01*
X147005676Y-91779154D01*
X147074016Y-91825933D01*
X147144552Y-91874228D01*
X147217140Y-91923941D01*
X147291634Y-91974971D01*
X147367891Y-92027220D01*
X147445767Y-92080589D01*
X147525116Y-92134979D01*
X147605793Y-92190289D01*
X147687656Y-92246421D01*
X147770558Y-92303276D01*
X147854356Y-92360755D01*
X147938904Y-92418757D01*
X148024059Y-92477185D01*
X148109676Y-92535938D01*
X148195610Y-92594919D01*
X148281717Y-92654026D01*
X148367852Y-92713162D01*
X148453871Y-92772226D01*
X148539630Y-92831120D01*
X148624983Y-92889745D01*
X148709786Y-92948001D01*
X148793894Y-93005789D01*
X148877164Y-93063010D01*
X148959451Y-93119564D01*
X149040609Y-93175353D01*
X149120495Y-93230277D01*
X149198964Y-93284237D01*
X149275872Y-93337133D01*
X149351074Y-93388867D01*
X149424425Y-93439339D01*
X149495780Y-93488451D01*
X149564997Y-93536102D01*
X149631929Y-93582194D01*
X149696432Y-93626627D01*
X149758363Y-93669302D01*
X149817575Y-93710120D01*
X149873926Y-93748982D01*
X149927269Y-93785789D01*
X149977462Y-93820440D01*
X150024358Y-93852838D01*
X150067814Y-93882883D01*
X150107685Y-93910475D01*
X150143827Y-93935516D01*
X150176095Y-93957905D01*
X150204345Y-93977545D01*
X150228431Y-93994335D01*
X150248210Y-94008177D01*
X150263537Y-94018972D01*
X150274268Y-94026619D01*
X150280257Y-94031020D01*
X150281553Y-94032123D01*
X150279529Y-94037955D01*
X150276714Y-94041195D01*
X150275735Y-94041434D01*
X150273310Y-94041664D01*
X150269332Y-94041885D01*
X150263690Y-94042097D01*
X150256277Y-94042301D01*
X150246984Y-94042496D01*
X150235700Y-94042684D01*
X150222318Y-94042863D01*
X150206728Y-94043034D01*
X150188822Y-94043198D01*
X150168490Y-94043353D01*
X150145623Y-94043502D01*
X150120113Y-94043643D01*
X150091850Y-94043778D01*
X150060726Y-94043905D01*
X150026631Y-94044026D01*
X149989457Y-94044140D01*
X149949095Y-94044247D01*
X149905435Y-94044349D01*
X149858369Y-94044444D01*
X149807788Y-94044534D01*
X149753582Y-94044618D01*
X149695643Y-94044696D01*
X149633863Y-94044769D01*
X149568130Y-94044836D01*
X149498338Y-94044899D01*
X149424377Y-94044956D01*
X149346138Y-94045009D01*
X149263511Y-94045057D01*
X149176389Y-94045101D01*
X149084662Y-94045141D01*
X148988220Y-94045176D01*
X148886956Y-94045208D01*
X148780760Y-94045236D01*
X148669523Y-94045260D01*
X148553137Y-94045281D01*
X148431491Y-94045298D01*
X148304478Y-94045313D01*
X148171989Y-94045324D01*
X148033913Y-94045333D01*
X147890143Y-94045339D01*
X147740570Y-94045343D01*
X147585083Y-94045345D01*
X147392704Y-94045345D01*
X147244368Y-94045344D01*
X147101845Y-94045342D01*
X146965020Y-94045340D01*
X146833774Y-94045336D01*
X146707992Y-94045331D01*
X146587555Y-94045324D01*
X146472347Y-94045314D01*
X146362251Y-94045303D01*
X146257150Y-94045289D01*
X146156927Y-94045273D01*
X146061465Y-94045253D01*
X145970648Y-94045230D01*
X145884357Y-94045204D01*
X145802477Y-94045174D01*
X145724890Y-94045140D01*
X145651480Y-94045102D01*
X145582129Y-94045059D01*
X145516720Y-94045012D01*
X145455137Y-94044960D01*
X145397263Y-94044903D01*
X145342980Y-94044840D01*
X145292172Y-94044771D01*
X145244721Y-94044697D01*
X145200511Y-94044617D01*
X145159425Y-94044530D01*
X145121345Y-94044436D01*
X145086156Y-94044336D01*
X145053739Y-94044228D01*
X145023979Y-94044114D01*
X144996757Y-94043991D01*
X144971958Y-94043861D01*
X144949463Y-94043722D01*
X144929157Y-94043576D01*
X144910922Y-94043420D01*
X144894641Y-94043256D01*
X144880197Y-94043083D01*
X144867474Y-94042900D01*
X144856354Y-94042708D01*
X144846720Y-94042506D01*
X144838456Y-94042294D01*
X144831445Y-94042072D01*
X144825568Y-94041839D01*
X144820711Y-94041596D01*
X144816755Y-94041341D01*
X144813584Y-94041075D01*
X144811081Y-94040798D01*
X144809128Y-94040509D01*
X144807609Y-94040208D01*
X144806408Y-94039895D01*
X144805596Y-94039635D01*
X144777129Y-94027704D01*
X144753661Y-94012935D01*
X144734585Y-93994759D01*
X144719295Y-93972609D01*
X144708091Y-93948339D01*
X144701274Y-93930440D01*
X144700435Y-93064119D01*
X144700371Y-92992067D01*
X144700318Y-92921559D01*
X144700278Y-92852835D01*
X144700248Y-92786138D01*
X144700230Y-92721708D01*
X144700223Y-92659787D01*
X144700227Y-92600617D01*
G36*
X144704986Y-95743005D02*
G01*
X144705012Y-95680095D01*
X144705061Y-95616971D01*
X144705133Y-95553925D01*
X144705227Y-95491248D01*
X144705344Y-95429232D01*
X144705483Y-95368168D01*
X144705643Y-95308349D01*
X144705826Y-95250067D01*
X144706029Y-95193611D01*
X144706254Y-95139276D01*
X144706500Y-95087351D01*
X144706766Y-95038129D01*
X144707053Y-94991901D01*
X144707359Y-94948960D01*
X144707686Y-94909596D01*
X144708033Y-94874102D01*
X144708399Y-94842769D01*
X144708784Y-94815889D01*
X144709188Y-94793753D01*
X144709611Y-94776654D01*
X144710053Y-94764882D01*
X144710512Y-94758730D01*
X144710624Y-94758130D01*
X144720754Y-94729995D01*
X144735607Y-94705483D01*
X144754857Y-94684887D01*
X144778180Y-94668499D01*
X144805249Y-94656614D01*
X144830264Y-94650389D01*
X144832544Y-94650165D01*
X144836802Y-94649949D01*
X144843141Y-94649743D01*
X144851664Y-94649547D01*
X144862474Y-94649359D01*
X144875675Y-94649181D01*
X144891368Y-94649011D01*
X144909658Y-94648851D01*
X144930647Y-94648699D01*
X144954438Y-94648556D01*
X144981135Y-94648422D01*
X145010839Y-94648296D01*
X145043655Y-94648178D01*
X145079685Y-94648069D01*
X145119032Y-94647968D01*
X145161800Y-94647875D01*
X145208090Y-94647790D01*
X145258007Y-94647713D01*
X145311654Y-94647644D01*
X145369132Y-94647583D01*
X145430546Y-94647529D01*
X145495998Y-94647483D01*
X145565592Y-94647444D01*
X145639429Y-94647413D01*
X145717614Y-94647389D01*
X145800250Y-94647372D01*
X145887438Y-94647362D01*
X145979283Y-94647360D01*
X146075888Y-94647364D01*
X146177354Y-94647375D01*
X146283786Y-94647392D01*
X146395287Y-94647417D01*
X146511958Y-94647447D01*
X146633904Y-94647485D01*
X146761228Y-94647528D01*
X146894032Y-94647578D01*
X147032419Y-94647634D01*
X147176493Y-94647696D01*
X147326356Y-94647764D01*
X147482111Y-94647838D01*
X147563310Y-94647877D01*
X147719216Y-94647955D01*
X147869187Y-94648032D01*
X148013332Y-94648108D01*
X148151763Y-94648183D01*
X148284592Y-94648258D01*
X148411929Y-94648334D01*
X148533887Y-94648409D01*
X148650575Y-94648486D01*
X148762106Y-94648562D01*
X148868591Y-94648640D01*
X148970140Y-94648719D01*
X149066866Y-94648799D01*
X149158880Y-94648881D01*
X149246292Y-94648965D01*
X149329214Y-94649051D01*
X149407757Y-94649139D01*
X149482033Y-94649229D01*
X149552153Y-94649323D01*
X149618227Y-94649419D01*
X149680368Y-94649519D01*
X149738687Y-94649622D01*
X149793294Y-94649729D01*
X149844301Y-94649840D01*
X149891820Y-94649955D01*
X149935962Y-94650074D01*
X149976837Y-94650198D01*
X150014557Y-94650327D01*
X150049234Y-94650461D01*
X150080978Y-94650600D01*
X150109901Y-94650745D01*
X150136114Y-94650895D01*
X150159729Y-94651052D01*
X150180856Y-94651215D01*
X150199608Y-94651384D01*
X150216094Y-94651560D01*
X150230427Y-94651743D01*
X150242717Y-94651933D01*
X150253077Y-94652130D01*
X150261617Y-94652335D01*
X150268448Y-94652548D01*
X150273682Y-94652769D01*
X150277430Y-94652998D01*
X150279803Y-94653236D01*
X150280912Y-94653483D01*
X150280959Y-94653508D01*
X150286602Y-94658752D01*
X150286699Y-94664312D01*
X150281153Y-94670824D01*
X150277935Y-94673389D01*
X150273614Y-94676471D01*
X150264486Y-94682846D01*
X150250697Y-94692415D01*
X150232391Y-94705078D01*
X150209715Y-94720735D01*
X150182814Y-94739286D01*
X150151834Y-94760632D01*
X150116920Y-94784673D01*
X150078217Y-94811308D01*
X150035872Y-94840438D01*
X149990030Y-94871964D01*
X149940836Y-94905785D01*
X149888436Y-94941801D01*
X149832975Y-94979914D01*
X149774599Y-95020022D01*
X149713454Y-95062026D01*
X149649685Y-95105826D01*
X149583438Y-95151323D01*
X149514858Y-95198416D01*
X149444090Y-95247006D01*
X149371281Y-95296993D01*
X149296575Y-95348276D01*
X149220119Y-95400758D01*
X149142058Y-95454336D01*
X149062537Y-95508912D01*
X148981703Y-95564386D01*
X148899700Y-95620658D01*
X148816674Y-95677628D01*
X148732770Y-95735196D01*
X148648135Y-95793262D01*
X148562914Y-95851728D01*
X148477252Y-95910491D01*
X148391294Y-95969454D01*
X148305187Y-96028516D01*
X148219077Y-96087578D01*
X148133107Y-96146538D01*
X148047425Y-96205299D01*
X147962175Y-96263759D01*
X147877503Y-96321819D01*
X147793555Y-96379379D01*
X147710476Y-96436340D01*
X147628412Y-96492601D01*
X147547508Y-96548063D01*
X147467910Y-96602625D01*
X147389764Y-96656189D01*
X147313214Y-96708653D01*
X147238407Y-96759919D01*
X147165488Y-96809887D01*
X147094603Y-96858456D01*
X147025896Y-96905527D01*
X146959515Y-96951000D01*
X146895603Y-96994775D01*
X146834308Y-97036753D01*
X146775774Y-97076833D01*
X146720146Y-97114916D01*
X146667571Y-97150902D01*
X146618194Y-97184690D01*
X146572161Y-97216182D01*
X146529617Y-97245278D01*
X146490707Y-97271877D01*
X146455577Y-97295879D01*
X146424373Y-97317186D01*
X146397241Y-97335697D01*
X146374325Y-97351311D01*
X146355771Y-97363931D01*
X146341726Y-97373454D01*
X146332334Y-97379783D01*
X146327740Y-97382817D01*
X146327333Y-97383063D01*
X146287777Y-97400553D01*
X146245440Y-97413246D01*
X146201240Y-97421122D01*
X146156090Y-97424162D01*
X146110906Y-97422347D01*
X146066604Y-97415658D01*
X146024100Y-97404076D01*
X145989492Y-97390098D01*
X145984908Y-97387620D01*
X145977658Y-97383248D01*
X145967611Y-97376891D01*
X145954634Y-97368461D01*
X145938596Y-97357866D01*
X145919365Y-97345017D01*
X145896810Y-97329825D01*
X145870799Y-97312199D01*
X145841199Y-97292049D01*
X145807880Y-97269286D01*
X145770709Y-97243819D01*
X145729555Y-97215559D01*
X145684287Y-97184416D01*
X145634771Y-97150299D01*
X145580878Y-97113120D01*
X145522474Y-97072787D01*
X145459429Y-97029212D01*
X145391611Y-96982304D01*
X145361946Y-96961777D01*
X145307335Y-96923984D01*
X145253862Y-96886983D01*
X145201754Y-96850930D01*
X145151237Y-96815979D01*
X145102536Y-96782289D01*
X145055877Y-96750014D01*
X145011486Y-96719311D01*
X144969590Y-96690337D01*
X144930413Y-96663247D01*
X144894183Y-96638198D01*
X144861124Y-96615345D01*
X144831463Y-96594846D01*
X144805425Y-96576855D01*
X144783237Y-96561531D01*
X144765125Y-96549028D01*
X144751314Y-96539502D01*
X144742030Y-96533111D01*
X144737560Y-96530051D01*
X144726613Y-96522531D01*
X144717278Y-96515905D01*
X144710906Y-96511141D01*
X144709190Y-96509701D01*
X144708733Y-96506276D01*
X144708303Y-96497095D01*
X144707901Y-96482450D01*
X144707525Y-96462632D01*
X144707177Y-96437934D01*
X144706855Y-96408646D01*
X144706560Y-96375061D01*
X144706290Y-96337470D01*
X144706047Y-96296165D01*
X144705829Y-96251437D01*
X144705637Y-96203579D01*
X144705470Y-96152881D01*
X144705328Y-96099637D01*
X144705211Y-96044136D01*
X144705118Y-95986671D01*
X144705049Y-95927534D01*
X144705004Y-95867016D01*
X144704984Y-95805409D01*
X144704986Y-95743005D01*
G37*
X144704986Y-95743005D02*
X144705012Y-95680095D01*
X144705061Y-95616971D01*
X144705133Y-95553925D01*
X144705227Y-95491248D01*
X144705344Y-95429232D01*
X144705483Y-95368168D01*
X144705643Y-95308349D01*
X144705826Y-95250067D01*
X144706029Y-95193611D01*
X144706254Y-95139276D01*
X144706500Y-95087351D01*
X144706766Y-95038129D01*
X144707053Y-94991901D01*
X144707359Y-94948960D01*
X144707686Y-94909596D01*
X144708033Y-94874102D01*
X144708399Y-94842769D01*
X144708784Y-94815889D01*
X144709188Y-94793753D01*
X144709611Y-94776654D01*
X144710053Y-94764882D01*
X144710512Y-94758730D01*
X144710624Y-94758130D01*
X144720754Y-94729995D01*
X144735607Y-94705483D01*
X144754857Y-94684887D01*
X144778180Y-94668499D01*
X144805249Y-94656614D01*
X144830264Y-94650389D01*
X144832544Y-94650165D01*
X144836802Y-94649949D01*
X144843141Y-94649743D01*
X144851664Y-94649547D01*
X144862474Y-94649359D01*
X144875675Y-94649181D01*
X144891368Y-94649011D01*
X144909658Y-94648851D01*
X144930647Y-94648699D01*
X144954438Y-94648556D01*
X144981135Y-94648422D01*
X145010839Y-94648296D01*
X145043655Y-94648178D01*
X145079685Y-94648069D01*
X145119032Y-94647968D01*
X145161800Y-94647875D01*
X145208090Y-94647790D01*
X145258007Y-94647713D01*
X145311654Y-94647644D01*
X145369132Y-94647583D01*
X145430546Y-94647529D01*
X145495998Y-94647483D01*
X145565592Y-94647444D01*
X145639429Y-94647413D01*
X145717614Y-94647389D01*
X145800250Y-94647372D01*
X145887438Y-94647362D01*
X145979283Y-94647360D01*
X146075888Y-94647364D01*
X146177354Y-94647375D01*
X146283786Y-94647392D01*
X146395287Y-94647417D01*
X146511958Y-94647447D01*
X146633904Y-94647485D01*
X146761228Y-94647528D01*
X146894032Y-94647578D01*
X147032419Y-94647634D01*
X147176493Y-94647696D01*
X147326356Y-94647764D01*
X147482111Y-94647838D01*
X147563310Y-94647877D01*
X147719216Y-94647955D01*
X147869187Y-94648032D01*
X148013332Y-94648108D01*
X148151763Y-94648183D01*
X148284592Y-94648258D01*
X148411929Y-94648334D01*
X148533887Y-94648409D01*
X148650575Y-94648486D01*
X148762106Y-94648562D01*
X148868591Y-94648640D01*
X148970140Y-94648719D01*
X149066866Y-94648799D01*
X149158880Y-94648881D01*
X149246292Y-94648965D01*
X149329214Y-94649051D01*
X149407757Y-94649139D01*
X149482033Y-94649229D01*
X149552153Y-94649323D01*
X149618227Y-94649419D01*
X149680368Y-94649519D01*
X149738687Y-94649622D01*
X149793294Y-94649729D01*
X149844301Y-94649840D01*
X149891820Y-94649955D01*
X149935962Y-94650074D01*
X149976837Y-94650198D01*
X150014557Y-94650327D01*
X150049234Y-94650461D01*
X150080978Y-94650600D01*
X150109901Y-94650745D01*
X150136114Y-94650895D01*
X150159729Y-94651052D01*
X150180856Y-94651215D01*
X150199608Y-94651384D01*
X150216094Y-94651560D01*
X150230427Y-94651743D01*
X150242717Y-94651933D01*
X150253077Y-94652130D01*
X150261617Y-94652335D01*
X150268448Y-94652548D01*
X150273682Y-94652769D01*
X150277430Y-94652998D01*
X150279803Y-94653236D01*
X150280912Y-94653483D01*
X150280959Y-94653508D01*
X150286602Y-94658752D01*
X150286699Y-94664312D01*
X150281153Y-94670824D01*
X150277935Y-94673389D01*
X150273614Y-94676471D01*
X150264486Y-94682846D01*
X150250697Y-94692415D01*
X150232391Y-94705078D01*
X150209715Y-94720735D01*
X150182814Y-94739286D01*
X150151834Y-94760632D01*
X150116920Y-94784673D01*
X150078217Y-94811308D01*
X150035872Y-94840438D01*
X149990030Y-94871964D01*
X149940836Y-94905785D01*
X149888436Y-94941801D01*
X149832975Y-94979914D01*
X149774599Y-95020022D01*
X149713454Y-95062026D01*
X149649685Y-95105826D01*
X149583438Y-95151323D01*
X149514858Y-95198416D01*
X149444090Y-95247006D01*
X149371281Y-95296993D01*
X149296575Y-95348276D01*
X149220119Y-95400758D01*
X149142058Y-95454336D01*
X149062537Y-95508912D01*
X148981703Y-95564386D01*
X148899700Y-95620658D01*
X148816674Y-95677628D01*
X148732770Y-95735196D01*
X148648135Y-95793262D01*
X148562914Y-95851728D01*
X148477252Y-95910491D01*
X148391294Y-95969454D01*
X148305187Y-96028516D01*
X148219077Y-96087578D01*
X148133107Y-96146538D01*
X148047425Y-96205299D01*
X147962175Y-96263759D01*
X147877503Y-96321819D01*
X147793555Y-96379379D01*
X147710476Y-96436340D01*
X147628412Y-96492601D01*
X147547508Y-96548063D01*
X147467910Y-96602625D01*
X147389764Y-96656189D01*
X147313214Y-96708653D01*
X147238407Y-96759919D01*
X147165488Y-96809887D01*
X147094603Y-96858456D01*
X147025896Y-96905527D01*
X146959515Y-96951000D01*
X146895603Y-96994775D01*
X146834308Y-97036753D01*
X146775774Y-97076833D01*
X146720146Y-97114916D01*
X146667571Y-97150902D01*
X146618194Y-97184690D01*
X146572161Y-97216182D01*
X146529617Y-97245278D01*
X146490707Y-97271877D01*
X146455577Y-97295879D01*
X146424373Y-97317186D01*
X146397241Y-97335697D01*
X146374325Y-97351311D01*
X146355771Y-97363931D01*
X146341726Y-97373454D01*
X146332334Y-97379783D01*
X146327740Y-97382817D01*
X146327333Y-97383063D01*
X146287777Y-97400553D01*
X146245440Y-97413246D01*
X146201240Y-97421122D01*
X146156090Y-97424162D01*
X146110906Y-97422347D01*
X146066604Y-97415658D01*
X146024100Y-97404076D01*
X145989492Y-97390098D01*
X145984908Y-97387620D01*
X145977658Y-97383248D01*
X145967611Y-97376891D01*
X145954634Y-97368461D01*
X145938596Y-97357866D01*
X145919365Y-97345017D01*
X145896810Y-97329825D01*
X145870799Y-97312199D01*
X145841199Y-97292049D01*
X145807880Y-97269286D01*
X145770709Y-97243819D01*
X145729555Y-97215559D01*
X145684287Y-97184416D01*
X145634771Y-97150299D01*
X145580878Y-97113120D01*
X145522474Y-97072787D01*
X145459429Y-97029212D01*
X145391611Y-96982304D01*
X145361946Y-96961777D01*
X145307335Y-96923984D01*
X145253862Y-96886983D01*
X145201754Y-96850930D01*
X145151237Y-96815979D01*
X145102536Y-96782289D01*
X145055877Y-96750014D01*
X145011486Y-96719311D01*
X144969590Y-96690337D01*
X144930413Y-96663247D01*
X144894183Y-96638198D01*
X144861124Y-96615345D01*
X144831463Y-96594846D01*
X144805425Y-96576855D01*
X144783237Y-96561531D01*
X144765125Y-96549028D01*
X144751314Y-96539502D01*
X144742030Y-96533111D01*
X144737560Y-96530051D01*
X144726613Y-96522531D01*
X144717278Y-96515905D01*
X144710906Y-96511141D01*
X144709190Y-96509701D01*
X144708733Y-96506276D01*
X144708303Y-96497095D01*
X144707901Y-96482450D01*
X144707525Y-96462632D01*
X144707177Y-96437934D01*
X144706855Y-96408646D01*
X144706560Y-96375061D01*
X144706290Y-96337470D01*
X144706047Y-96296165D01*
X144705829Y-96251437D01*
X144705637Y-96203579D01*
X144705470Y-96152881D01*
X144705328Y-96099637D01*
X144705211Y-96044136D01*
X144705118Y-95986671D01*
X144705049Y-95927534D01*
X144705004Y-95867016D01*
X144704984Y-95805409D01*
X144704986Y-95743005D01*
D11*
%TO.C,J1*%
X141800000Y-87300000D02*
X141200000Y-87000000D01*
X141800000Y-86700000D02*
X141800000Y-87300000D01*
X141200000Y-87000000D02*
X141800000Y-86700000D01*
X136500000Y-102250000D02*
X136500000Y-101750000D01*
X131000000Y-102250000D02*
X136500000Y-102250000D01*
X131000000Y-101750000D02*
X131000000Y-102250000D01*
X136500000Y-101750000D02*
X131000000Y-101750000D01*
X136500000Y-99750000D02*
X136500000Y-99250000D01*
X131000000Y-99750000D02*
X136500000Y-99750000D01*
X131000000Y-99250000D02*
X131000000Y-99750000D01*
X136500000Y-99250000D02*
X131000000Y-99250000D01*
X136500000Y-97250000D02*
X136500000Y-96750000D01*
X131000000Y-97250000D02*
X136500000Y-97250000D01*
X131000000Y-96750000D02*
X131000000Y-97250000D01*
X136500000Y-96750000D02*
X131000000Y-96750000D01*
X136500000Y-94750000D02*
X136500000Y-94250000D01*
X131000000Y-94750000D02*
X136500000Y-94750000D01*
X131000000Y-94250000D02*
X131000000Y-94750000D01*
X136500000Y-94250000D02*
X131000000Y-94250000D01*
X136500000Y-92250000D02*
X136500000Y-91750000D01*
X131000000Y-92250000D02*
X136500000Y-92250000D01*
X131000000Y-91750000D02*
X131000000Y-92250000D01*
X136500000Y-91750000D02*
X131000000Y-91750000D01*
X136500000Y-89750000D02*
X136500000Y-89250000D01*
X131000000Y-89750000D02*
X136500000Y-89750000D01*
X131000000Y-89250000D02*
X131000000Y-89750000D01*
X136500000Y-89250000D02*
X131000000Y-89250000D01*
X136500000Y-87250000D02*
X136500000Y-86750000D01*
X131000000Y-87250000D02*
X136500000Y-87250000D01*
X131000000Y-86750000D02*
X131000000Y-87250000D01*
X136500000Y-86750000D02*
X131000000Y-86750000D01*
X137610000Y-103140000D02*
X137610000Y-94500000D01*
X142110000Y-103140000D02*
X137610000Y-103140000D01*
X142110000Y-104560000D02*
X142110000Y-103140000D01*
X130390000Y-104560000D02*
X142110000Y-104560000D01*
X130390000Y-94500000D02*
X130390000Y-104560000D01*
X137610000Y-85860000D02*
X137610000Y-94500000D01*
X142110000Y-85860000D02*
X137610000Y-85860000D01*
X142110000Y-84440000D02*
X142110000Y-85860000D01*
X130390000Y-84440000D02*
X142110000Y-84440000D01*
X130390000Y-94500000D02*
X130390000Y-84440000D01*
D12*
X143952380Y-90833333D02*
X144666666Y-90833333D01*
X144809523Y-90880952D01*
X144904761Y-90976190D01*
X144952380Y-91119047D01*
X144952380Y-91214285D01*
X144952380Y-89833333D02*
X144952380Y-90404761D01*
X144952380Y-90119047D02*
X143952380Y-90119047D01*
X144095238Y-90214285D01*
X144190476Y-90309523D01*
X144238095Y-90404761D01*
%TD*%
M02*
