%TF.GenerationSoftware,KiCad,Pcbnew,5.1.9-73d0e3b20d~88~ubuntu20.04.1*%
%TF.CreationDate,2021-06-02T20:16:19+09:00*%
%TF.ProjectId,BAT-JST7-Straight-Con-PCB,4241542d-4a53-4543-972d-537472616967,rev?*%
%TF.SameCoordinates,Original*%
%TF.FileFunction,Copper,L1,Top*%
%TF.FilePolarity,Positive*%
%FSLAX46Y46*%
G04 Gerber Fmt 4.6, Leading zero omitted, Abs format (unit mm)*
G04 Created by KiCad (PCBNEW 5.1.9-73d0e3b20d~88~ubuntu20.04.1) date 2021-06-02 20:16:19*
%MOMM*%
%LPD*%
G01*
G04 APERTURE LIST*
%TA.AperFunction,ComponentPad*%
%ADD10O,1.950000X1.700000*%
%TD*%
%TA.AperFunction,Conductor*%
%ADD11C,2.000000*%
%TD*%
%TA.AperFunction,NonConductor*%
%ADD12C,0.254000*%
%TD*%
%TA.AperFunction,NonConductor*%
%ADD13C,0.100000*%
%TD*%
G04 APERTURE END LIST*
D10*
%TO.P,J2,7*%
%TO.N,Net-(J1-Pad7)*%
X142240000Y-102000000D03*
%TO.P,J2,6*%
%TO.N,Net-(J1-Pad6)*%
X142240000Y-99500000D03*
%TO.P,J2,5*%
%TO.N,Net-(J1-Pad5)*%
X142240000Y-97000000D03*
%TO.P,J2,4*%
%TO.N,Net-(J1-Pad4)*%
X142240000Y-94500000D03*
%TO.P,J2,3*%
%TO.N,Net-(J1-Pad3)*%
X142240000Y-92000000D03*
%TO.P,J2,2*%
%TO.N,Net-(J1-Pad2)*%
X142240000Y-89500000D03*
%TO.P,J2,1*%
%TO.N,Net-(J1-Pad1)*%
%TA.AperFunction,ComponentPad*%
G36*
G01*
X141515000Y-86150000D02*
X142965000Y-86150000D01*
G75*
G02*
X143215000Y-86400000I0J-250000D01*
G01*
X143215000Y-87600000D01*
G75*
G02*
X142965000Y-87850000I-250000J0D01*
G01*
X141515000Y-87850000D01*
G75*
G02*
X141265000Y-87600000I0J250000D01*
G01*
X141265000Y-86400000D01*
G75*
G02*
X141515000Y-86150000I250000J0D01*
G01*
G37*
%TD.AperFunction*%
%TD*%
%TO.P,J1,7*%
%TO.N,Net-(J1-Pad7)*%
X139700000Y-102000000D03*
%TO.P,J1,6*%
%TO.N,Net-(J1-Pad6)*%
X139700000Y-99500000D03*
%TO.P,J1,5*%
%TO.N,Net-(J1-Pad5)*%
X139700000Y-97000000D03*
%TO.P,J1,4*%
%TO.N,Net-(J1-Pad4)*%
X139700000Y-94500000D03*
%TO.P,J1,3*%
%TO.N,Net-(J1-Pad3)*%
X139700000Y-92000000D03*
%TO.P,J1,2*%
%TO.N,Net-(J1-Pad2)*%
X139700000Y-89500000D03*
%TO.P,J1,1*%
%TO.N,Net-(J1-Pad1)*%
%TA.AperFunction,ComponentPad*%
G36*
G01*
X138975000Y-86150000D02*
X140425000Y-86150000D01*
G75*
G02*
X140675000Y-86400000I0J-250000D01*
G01*
X140675000Y-87600000D01*
G75*
G02*
X140425000Y-87850000I-250000J0D01*
G01*
X138975000Y-87850000D01*
G75*
G02*
X138725000Y-87600000I0J250000D01*
G01*
X138725000Y-86400000D01*
G75*
G02*
X138975000Y-86150000I250000J0D01*
G01*
G37*
%TD.AperFunction*%
%TD*%
D11*
%TO.N,Net-(J1-Pad7)*%
X139700000Y-102000000D02*
X142240000Y-102000000D01*
%TO.N,Net-(J1-Pad6)*%
X139700000Y-99500000D02*
X142240000Y-99500000D01*
%TO.N,Net-(J1-Pad5)*%
X139700000Y-97000000D02*
X142240000Y-97000000D01*
%TO.N,Net-(J1-Pad4)*%
X139700000Y-94500000D02*
X142240000Y-94500000D01*
%TO.N,Net-(J1-Pad3)*%
X139700000Y-92000000D02*
X142240000Y-92000000D01*
%TO.N,Net-(J1-Pad2)*%
X139700000Y-89500000D02*
X142240000Y-89500000D01*
%TO.N,Net-(J1-Pad1)*%
X139700000Y-87000000D02*
X142240000Y-87000000D01*
%TD*%
D12*
X151340001Y-104340000D02*
X130660000Y-104340000D01*
X130660000Y-87000000D01*
X138057089Y-87000000D01*
X138086928Y-87302961D01*
X138086928Y-87600000D01*
X138103992Y-87773254D01*
X138154528Y-87939850D01*
X138236595Y-88093386D01*
X138347038Y-88227962D01*
X138481614Y-88338405D01*
X138520938Y-88359424D01*
X138333969Y-88587248D01*
X138182148Y-88871285D01*
X138088657Y-89179484D01*
X138057089Y-89500000D01*
X138088657Y-89820516D01*
X138182148Y-90128715D01*
X138333969Y-90412752D01*
X138538286Y-90661714D01*
X138645863Y-90750000D01*
X138538286Y-90838286D01*
X138333969Y-91087248D01*
X138182148Y-91371285D01*
X138088657Y-91679484D01*
X138057089Y-92000000D01*
X138088657Y-92320516D01*
X138182148Y-92628715D01*
X138333969Y-92912752D01*
X138538286Y-93161714D01*
X138645863Y-93250000D01*
X138538286Y-93338286D01*
X138333969Y-93587248D01*
X138182148Y-93871285D01*
X138088657Y-94179484D01*
X138057089Y-94500000D01*
X138088657Y-94820516D01*
X138182148Y-95128715D01*
X138333969Y-95412752D01*
X138538286Y-95661714D01*
X138645863Y-95750000D01*
X138538286Y-95838286D01*
X138333969Y-96087248D01*
X138182148Y-96371285D01*
X138088657Y-96679484D01*
X138057089Y-97000000D01*
X138088657Y-97320516D01*
X138182148Y-97628715D01*
X138333969Y-97912752D01*
X138538286Y-98161714D01*
X138645863Y-98250000D01*
X138538286Y-98338286D01*
X138333969Y-98587248D01*
X138182148Y-98871285D01*
X138088657Y-99179484D01*
X138057089Y-99500000D01*
X138088657Y-99820516D01*
X138182148Y-100128715D01*
X138333969Y-100412752D01*
X138538286Y-100661714D01*
X138645863Y-100750000D01*
X138538286Y-100838286D01*
X138333969Y-101087248D01*
X138182148Y-101371285D01*
X138088657Y-101679484D01*
X138057089Y-102000000D01*
X138088657Y-102320516D01*
X138182148Y-102628715D01*
X138333969Y-102912752D01*
X138538286Y-103161714D01*
X138787248Y-103366031D01*
X139071285Y-103517852D01*
X139379484Y-103611343D01*
X139619678Y-103635000D01*
X142320322Y-103635000D01*
X142560516Y-103611343D01*
X142868715Y-103517852D01*
X143152752Y-103366031D01*
X143401714Y-103161714D01*
X143606031Y-102912752D01*
X143757852Y-102628715D01*
X143851343Y-102320516D01*
X143882911Y-102000000D01*
X143851343Y-101679484D01*
X143757852Y-101371285D01*
X143606031Y-101087248D01*
X143401714Y-100838286D01*
X143294137Y-100750000D01*
X143401714Y-100661714D01*
X143606031Y-100412752D01*
X143757852Y-100128715D01*
X143851343Y-99820516D01*
X143882911Y-99500000D01*
X143851343Y-99179484D01*
X143757852Y-98871285D01*
X143606031Y-98587248D01*
X143401714Y-98338286D01*
X143294137Y-98250000D01*
X143401714Y-98161714D01*
X143606031Y-97912752D01*
X143757852Y-97628715D01*
X143851343Y-97320516D01*
X143882911Y-97000000D01*
X143851343Y-96679484D01*
X143757852Y-96371285D01*
X143606031Y-96087248D01*
X143401714Y-95838286D01*
X143294137Y-95750000D01*
X143401714Y-95661714D01*
X143606031Y-95412752D01*
X143757852Y-95128715D01*
X143851343Y-94820516D01*
X143882911Y-94500000D01*
X143851343Y-94179484D01*
X143757852Y-93871285D01*
X143606031Y-93587248D01*
X143401714Y-93338286D01*
X143294137Y-93250000D01*
X143401714Y-93161714D01*
X143606031Y-92912752D01*
X143757852Y-92628715D01*
X143851343Y-92320516D01*
X143882911Y-92000000D01*
X143851343Y-91679484D01*
X143757852Y-91371285D01*
X143606031Y-91087248D01*
X143401714Y-90838286D01*
X143294137Y-90750000D01*
X143401714Y-90661714D01*
X143606031Y-90412752D01*
X143757852Y-90128715D01*
X143851343Y-89820516D01*
X143882911Y-89500000D01*
X143851343Y-89179484D01*
X143757852Y-88871285D01*
X143606031Y-88587248D01*
X143419062Y-88359424D01*
X143458386Y-88338405D01*
X143592962Y-88227962D01*
X143703405Y-88093386D01*
X143785472Y-87939850D01*
X143836008Y-87773254D01*
X143853072Y-87600000D01*
X143853072Y-87302961D01*
X143882911Y-87000000D01*
X143853072Y-86697039D01*
X143853072Y-86400000D01*
X143836008Y-86226746D01*
X143785472Y-86060150D01*
X143703405Y-85906614D01*
X143592962Y-85772038D01*
X143458386Y-85661595D01*
X143304850Y-85579528D01*
X143138254Y-85528992D01*
X142965000Y-85511928D01*
X142924429Y-85511928D01*
X142868715Y-85482148D01*
X142560516Y-85388657D01*
X142320322Y-85365000D01*
X139619678Y-85365000D01*
X139379484Y-85388657D01*
X139071285Y-85482148D01*
X139015571Y-85511928D01*
X138975000Y-85511928D01*
X138801746Y-85528992D01*
X138635150Y-85579528D01*
X138481614Y-85661595D01*
X138347038Y-85772038D01*
X138236595Y-85906614D01*
X138154528Y-86060150D01*
X138103992Y-86226746D01*
X138086928Y-86400000D01*
X138086928Y-86697039D01*
X138057089Y-87000000D01*
X130660000Y-87000000D01*
X130660000Y-84660000D01*
X151340000Y-84660000D01*
X151340001Y-104340000D01*
%TA.AperFunction,NonConductor*%
D13*
G36*
X151340001Y-104340000D02*
G01*
X130660000Y-104340000D01*
X130660000Y-87000000D01*
X138057089Y-87000000D01*
X138086928Y-87302961D01*
X138086928Y-87600000D01*
X138103992Y-87773254D01*
X138154528Y-87939850D01*
X138236595Y-88093386D01*
X138347038Y-88227962D01*
X138481614Y-88338405D01*
X138520938Y-88359424D01*
X138333969Y-88587248D01*
X138182148Y-88871285D01*
X138088657Y-89179484D01*
X138057089Y-89500000D01*
X138088657Y-89820516D01*
X138182148Y-90128715D01*
X138333969Y-90412752D01*
X138538286Y-90661714D01*
X138645863Y-90750000D01*
X138538286Y-90838286D01*
X138333969Y-91087248D01*
X138182148Y-91371285D01*
X138088657Y-91679484D01*
X138057089Y-92000000D01*
X138088657Y-92320516D01*
X138182148Y-92628715D01*
X138333969Y-92912752D01*
X138538286Y-93161714D01*
X138645863Y-93250000D01*
X138538286Y-93338286D01*
X138333969Y-93587248D01*
X138182148Y-93871285D01*
X138088657Y-94179484D01*
X138057089Y-94500000D01*
X138088657Y-94820516D01*
X138182148Y-95128715D01*
X138333969Y-95412752D01*
X138538286Y-95661714D01*
X138645863Y-95750000D01*
X138538286Y-95838286D01*
X138333969Y-96087248D01*
X138182148Y-96371285D01*
X138088657Y-96679484D01*
X138057089Y-97000000D01*
X138088657Y-97320516D01*
X138182148Y-97628715D01*
X138333969Y-97912752D01*
X138538286Y-98161714D01*
X138645863Y-98250000D01*
X138538286Y-98338286D01*
X138333969Y-98587248D01*
X138182148Y-98871285D01*
X138088657Y-99179484D01*
X138057089Y-99500000D01*
X138088657Y-99820516D01*
X138182148Y-100128715D01*
X138333969Y-100412752D01*
X138538286Y-100661714D01*
X138645863Y-100750000D01*
X138538286Y-100838286D01*
X138333969Y-101087248D01*
X138182148Y-101371285D01*
X138088657Y-101679484D01*
X138057089Y-102000000D01*
X138088657Y-102320516D01*
X138182148Y-102628715D01*
X138333969Y-102912752D01*
X138538286Y-103161714D01*
X138787248Y-103366031D01*
X139071285Y-103517852D01*
X139379484Y-103611343D01*
X139619678Y-103635000D01*
X142320322Y-103635000D01*
X142560516Y-103611343D01*
X142868715Y-103517852D01*
X143152752Y-103366031D01*
X143401714Y-103161714D01*
X143606031Y-102912752D01*
X143757852Y-102628715D01*
X143851343Y-102320516D01*
X143882911Y-102000000D01*
X143851343Y-101679484D01*
X143757852Y-101371285D01*
X143606031Y-101087248D01*
X143401714Y-100838286D01*
X143294137Y-100750000D01*
X143401714Y-100661714D01*
X143606031Y-100412752D01*
X143757852Y-100128715D01*
X143851343Y-99820516D01*
X143882911Y-99500000D01*
X143851343Y-99179484D01*
X143757852Y-98871285D01*
X143606031Y-98587248D01*
X143401714Y-98338286D01*
X143294137Y-98250000D01*
X143401714Y-98161714D01*
X143606031Y-97912752D01*
X143757852Y-97628715D01*
X143851343Y-97320516D01*
X143882911Y-97000000D01*
X143851343Y-96679484D01*
X143757852Y-96371285D01*
X143606031Y-96087248D01*
X143401714Y-95838286D01*
X143294137Y-95750000D01*
X143401714Y-95661714D01*
X143606031Y-95412752D01*
X143757852Y-95128715D01*
X143851343Y-94820516D01*
X143882911Y-94500000D01*
X143851343Y-94179484D01*
X143757852Y-93871285D01*
X143606031Y-93587248D01*
X143401714Y-93338286D01*
X143294137Y-93250000D01*
X143401714Y-93161714D01*
X143606031Y-92912752D01*
X143757852Y-92628715D01*
X143851343Y-92320516D01*
X143882911Y-92000000D01*
X143851343Y-91679484D01*
X143757852Y-91371285D01*
X143606031Y-91087248D01*
X143401714Y-90838286D01*
X143294137Y-90750000D01*
X143401714Y-90661714D01*
X143606031Y-90412752D01*
X143757852Y-90128715D01*
X143851343Y-89820516D01*
X143882911Y-89500000D01*
X143851343Y-89179484D01*
X143757852Y-88871285D01*
X143606031Y-88587248D01*
X143419062Y-88359424D01*
X143458386Y-88338405D01*
X143592962Y-88227962D01*
X143703405Y-88093386D01*
X143785472Y-87939850D01*
X143836008Y-87773254D01*
X143853072Y-87600000D01*
X143853072Y-87302961D01*
X143882911Y-87000000D01*
X143853072Y-86697039D01*
X143853072Y-86400000D01*
X143836008Y-86226746D01*
X143785472Y-86060150D01*
X143703405Y-85906614D01*
X143592962Y-85772038D01*
X143458386Y-85661595D01*
X143304850Y-85579528D01*
X143138254Y-85528992D01*
X142965000Y-85511928D01*
X142924429Y-85511928D01*
X142868715Y-85482148D01*
X142560516Y-85388657D01*
X142320322Y-85365000D01*
X139619678Y-85365000D01*
X139379484Y-85388657D01*
X139071285Y-85482148D01*
X139015571Y-85511928D01*
X138975000Y-85511928D01*
X138801746Y-85528992D01*
X138635150Y-85579528D01*
X138481614Y-85661595D01*
X138347038Y-85772038D01*
X138236595Y-85906614D01*
X138154528Y-86060150D01*
X138103992Y-86226746D01*
X138086928Y-86400000D01*
X138086928Y-86697039D01*
X138057089Y-87000000D01*
X130660000Y-87000000D01*
X130660000Y-84660000D01*
X151340000Y-84660000D01*
X151340001Y-104340000D01*
G37*
%TD.AperFunction*%
M02*
