%TF.GenerationSoftware,KiCad,Pcbnew,5.1.9-73d0e3b20d~88~ubuntu20.04.1*%
%TF.CreationDate,2021-06-02T20:16:19+09:00*%
%TF.ProjectId,BAT-JST7-Straight-Con-PCB,4241542d-4a53-4543-972d-537472616967,rev?*%
%TF.SameCoordinates,Original*%
%TF.FileFunction,Copper,L2,Bot*%
%TF.FilePolarity,Positive*%
%FSLAX46Y46*%
G04 Gerber Fmt 4.6, Leading zero omitted, Abs format (unit mm)*
G04 Created by KiCad (PCBNEW 5.1.9-73d0e3b20d~88~ubuntu20.04.1) date 2021-06-02 20:16:19*
%MOMM*%
%LPD*%
G01*
G04 APERTURE LIST*
%TA.AperFunction,ComponentPad*%
%ADD10O,1.950000X1.700000*%
%TD*%
%TA.AperFunction,NonConductor*%
%ADD11C,0.254000*%
%TD*%
%TA.AperFunction,NonConductor*%
%ADD12C,0.100000*%
%TD*%
G04 APERTURE END LIST*
D10*
%TO.P,J2,7*%
%TO.N,Net-(J1-Pad7)*%
X142240000Y-102000000D03*
%TO.P,J2,6*%
%TO.N,Net-(J1-Pad6)*%
X142240000Y-99500000D03*
%TO.P,J2,5*%
%TO.N,Net-(J1-Pad5)*%
X142240000Y-97000000D03*
%TO.P,J2,4*%
%TO.N,Net-(J1-Pad4)*%
X142240000Y-94500000D03*
%TO.P,J2,3*%
%TO.N,Net-(J1-Pad3)*%
X142240000Y-92000000D03*
%TO.P,J2,2*%
%TO.N,Net-(J1-Pad2)*%
X142240000Y-89500000D03*
%TO.P,J2,1*%
%TO.N,Net-(J1-Pad1)*%
%TA.AperFunction,ComponentPad*%
G36*
G01*
X141515000Y-86150000D02*
X142965000Y-86150000D01*
G75*
G02*
X143215000Y-86400000I0J-250000D01*
G01*
X143215000Y-87600000D01*
G75*
G02*
X142965000Y-87850000I-250000J0D01*
G01*
X141515000Y-87850000D01*
G75*
G02*
X141265000Y-87600000I0J250000D01*
G01*
X141265000Y-86400000D01*
G75*
G02*
X141515000Y-86150000I250000J0D01*
G01*
G37*
%TD.AperFunction*%
%TD*%
%TO.P,J1,7*%
%TO.N,Net-(J1-Pad7)*%
X139700000Y-102000000D03*
%TO.P,J1,6*%
%TO.N,Net-(J1-Pad6)*%
X139700000Y-99500000D03*
%TO.P,J1,5*%
%TO.N,Net-(J1-Pad5)*%
X139700000Y-97000000D03*
%TO.P,J1,4*%
%TO.N,Net-(J1-Pad4)*%
X139700000Y-94500000D03*
%TO.P,J1,3*%
%TO.N,Net-(J1-Pad3)*%
X139700000Y-92000000D03*
%TO.P,J1,2*%
%TO.N,Net-(J1-Pad2)*%
X139700000Y-89500000D03*
%TO.P,J1,1*%
%TO.N,Net-(J1-Pad1)*%
%TA.AperFunction,ComponentPad*%
G36*
G01*
X138975000Y-86150000D02*
X140425000Y-86150000D01*
G75*
G02*
X140675000Y-86400000I0J-250000D01*
G01*
X140675000Y-87600000D01*
G75*
G02*
X140425000Y-87850000I-250000J0D01*
G01*
X138975000Y-87850000D01*
G75*
G02*
X138725000Y-87600000I0J250000D01*
G01*
X138725000Y-86400000D01*
G75*
G02*
X138975000Y-86150000I250000J0D01*
G01*
G37*
%TD.AperFunction*%
%TD*%
D11*
X151340001Y-104340000D02*
X130660000Y-104340000D01*
X130660000Y-89500000D01*
X138082815Y-89500000D01*
X138111487Y-89791111D01*
X138196401Y-90071034D01*
X138334294Y-90329014D01*
X138519866Y-90555134D01*
X138745986Y-90740706D01*
X138763374Y-90750000D01*
X138745986Y-90759294D01*
X138519866Y-90944866D01*
X138334294Y-91170986D01*
X138196401Y-91428966D01*
X138111487Y-91708889D01*
X138082815Y-92000000D01*
X138111487Y-92291111D01*
X138196401Y-92571034D01*
X138334294Y-92829014D01*
X138519866Y-93055134D01*
X138745986Y-93240706D01*
X138763374Y-93250000D01*
X138745986Y-93259294D01*
X138519866Y-93444866D01*
X138334294Y-93670986D01*
X138196401Y-93928966D01*
X138111487Y-94208889D01*
X138082815Y-94500000D01*
X138111487Y-94791111D01*
X138196401Y-95071034D01*
X138334294Y-95329014D01*
X138519866Y-95555134D01*
X138745986Y-95740706D01*
X138763374Y-95750000D01*
X138745986Y-95759294D01*
X138519866Y-95944866D01*
X138334294Y-96170986D01*
X138196401Y-96428966D01*
X138111487Y-96708889D01*
X138082815Y-97000000D01*
X138111487Y-97291111D01*
X138196401Y-97571034D01*
X138334294Y-97829014D01*
X138519866Y-98055134D01*
X138745986Y-98240706D01*
X138763374Y-98250000D01*
X138745986Y-98259294D01*
X138519866Y-98444866D01*
X138334294Y-98670986D01*
X138196401Y-98928966D01*
X138111487Y-99208889D01*
X138082815Y-99500000D01*
X138111487Y-99791111D01*
X138196401Y-100071034D01*
X138334294Y-100329014D01*
X138519866Y-100555134D01*
X138745986Y-100740706D01*
X138763374Y-100750000D01*
X138745986Y-100759294D01*
X138519866Y-100944866D01*
X138334294Y-101170986D01*
X138196401Y-101428966D01*
X138111487Y-101708889D01*
X138082815Y-102000000D01*
X138111487Y-102291111D01*
X138196401Y-102571034D01*
X138334294Y-102829014D01*
X138519866Y-103055134D01*
X138745986Y-103240706D01*
X139003966Y-103378599D01*
X139283889Y-103463513D01*
X139502050Y-103485000D01*
X139897950Y-103485000D01*
X140116111Y-103463513D01*
X140396034Y-103378599D01*
X140654014Y-103240706D01*
X140880134Y-103055134D01*
X140970000Y-102945632D01*
X141059866Y-103055134D01*
X141285986Y-103240706D01*
X141543966Y-103378599D01*
X141823889Y-103463513D01*
X142042050Y-103485000D01*
X142437950Y-103485000D01*
X142656111Y-103463513D01*
X142936034Y-103378599D01*
X143194014Y-103240706D01*
X143420134Y-103055134D01*
X143605706Y-102829014D01*
X143743599Y-102571034D01*
X143828513Y-102291111D01*
X143857185Y-102000000D01*
X143828513Y-101708889D01*
X143743599Y-101428966D01*
X143605706Y-101170986D01*
X143420134Y-100944866D01*
X143194014Y-100759294D01*
X143176626Y-100750000D01*
X143194014Y-100740706D01*
X143420134Y-100555134D01*
X143605706Y-100329014D01*
X143743599Y-100071034D01*
X143828513Y-99791111D01*
X143857185Y-99500000D01*
X143828513Y-99208889D01*
X143743599Y-98928966D01*
X143605706Y-98670986D01*
X143420134Y-98444866D01*
X143194014Y-98259294D01*
X143176626Y-98250000D01*
X143194014Y-98240706D01*
X143420134Y-98055134D01*
X143605706Y-97829014D01*
X143743599Y-97571034D01*
X143828513Y-97291111D01*
X143857185Y-97000000D01*
X143828513Y-96708889D01*
X143743599Y-96428966D01*
X143605706Y-96170986D01*
X143420134Y-95944866D01*
X143194014Y-95759294D01*
X143176626Y-95750000D01*
X143194014Y-95740706D01*
X143420134Y-95555134D01*
X143605706Y-95329014D01*
X143743599Y-95071034D01*
X143828513Y-94791111D01*
X143857185Y-94500000D01*
X143828513Y-94208889D01*
X143743599Y-93928966D01*
X143605706Y-93670986D01*
X143420134Y-93444866D01*
X143194014Y-93259294D01*
X143176626Y-93250000D01*
X143194014Y-93240706D01*
X143420134Y-93055134D01*
X143605706Y-92829014D01*
X143743599Y-92571034D01*
X143828513Y-92291111D01*
X143857185Y-92000000D01*
X143828513Y-91708889D01*
X143743599Y-91428966D01*
X143605706Y-91170986D01*
X143420134Y-90944866D01*
X143194014Y-90759294D01*
X143176626Y-90750000D01*
X143194014Y-90740706D01*
X143420134Y-90555134D01*
X143605706Y-90329014D01*
X143743599Y-90071034D01*
X143828513Y-89791111D01*
X143857185Y-89500000D01*
X143828513Y-89208889D01*
X143743599Y-88928966D01*
X143605706Y-88670986D01*
X143420134Y-88444866D01*
X143356663Y-88392777D01*
X143458386Y-88338405D01*
X143592962Y-88227962D01*
X143703405Y-88093386D01*
X143785472Y-87939850D01*
X143836008Y-87773254D01*
X143853072Y-87600000D01*
X143853072Y-86400000D01*
X143836008Y-86226746D01*
X143785472Y-86060150D01*
X143703405Y-85906614D01*
X143592962Y-85772038D01*
X143458386Y-85661595D01*
X143304850Y-85579528D01*
X143138254Y-85528992D01*
X142965000Y-85511928D01*
X141515000Y-85511928D01*
X141341746Y-85528992D01*
X141175150Y-85579528D01*
X141021614Y-85661595D01*
X140970000Y-85703953D01*
X140918386Y-85661595D01*
X140764850Y-85579528D01*
X140598254Y-85528992D01*
X140425000Y-85511928D01*
X138975000Y-85511928D01*
X138801746Y-85528992D01*
X138635150Y-85579528D01*
X138481614Y-85661595D01*
X138347038Y-85772038D01*
X138236595Y-85906614D01*
X138154528Y-86060150D01*
X138103992Y-86226746D01*
X138086928Y-86400000D01*
X138086928Y-87600000D01*
X138103992Y-87773254D01*
X138154528Y-87939850D01*
X138236595Y-88093386D01*
X138347038Y-88227962D01*
X138481614Y-88338405D01*
X138583337Y-88392777D01*
X138519866Y-88444866D01*
X138334294Y-88670986D01*
X138196401Y-88928966D01*
X138111487Y-89208889D01*
X138082815Y-89500000D01*
X130660000Y-89500000D01*
X130660000Y-84660000D01*
X151340000Y-84660000D01*
X151340001Y-104340000D01*
%TA.AperFunction,NonConductor*%
D12*
G36*
X151340001Y-104340000D02*
G01*
X130660000Y-104340000D01*
X130660000Y-89500000D01*
X138082815Y-89500000D01*
X138111487Y-89791111D01*
X138196401Y-90071034D01*
X138334294Y-90329014D01*
X138519866Y-90555134D01*
X138745986Y-90740706D01*
X138763374Y-90750000D01*
X138745986Y-90759294D01*
X138519866Y-90944866D01*
X138334294Y-91170986D01*
X138196401Y-91428966D01*
X138111487Y-91708889D01*
X138082815Y-92000000D01*
X138111487Y-92291111D01*
X138196401Y-92571034D01*
X138334294Y-92829014D01*
X138519866Y-93055134D01*
X138745986Y-93240706D01*
X138763374Y-93250000D01*
X138745986Y-93259294D01*
X138519866Y-93444866D01*
X138334294Y-93670986D01*
X138196401Y-93928966D01*
X138111487Y-94208889D01*
X138082815Y-94500000D01*
X138111487Y-94791111D01*
X138196401Y-95071034D01*
X138334294Y-95329014D01*
X138519866Y-95555134D01*
X138745986Y-95740706D01*
X138763374Y-95750000D01*
X138745986Y-95759294D01*
X138519866Y-95944866D01*
X138334294Y-96170986D01*
X138196401Y-96428966D01*
X138111487Y-96708889D01*
X138082815Y-97000000D01*
X138111487Y-97291111D01*
X138196401Y-97571034D01*
X138334294Y-97829014D01*
X138519866Y-98055134D01*
X138745986Y-98240706D01*
X138763374Y-98250000D01*
X138745986Y-98259294D01*
X138519866Y-98444866D01*
X138334294Y-98670986D01*
X138196401Y-98928966D01*
X138111487Y-99208889D01*
X138082815Y-99500000D01*
X138111487Y-99791111D01*
X138196401Y-100071034D01*
X138334294Y-100329014D01*
X138519866Y-100555134D01*
X138745986Y-100740706D01*
X138763374Y-100750000D01*
X138745986Y-100759294D01*
X138519866Y-100944866D01*
X138334294Y-101170986D01*
X138196401Y-101428966D01*
X138111487Y-101708889D01*
X138082815Y-102000000D01*
X138111487Y-102291111D01*
X138196401Y-102571034D01*
X138334294Y-102829014D01*
X138519866Y-103055134D01*
X138745986Y-103240706D01*
X139003966Y-103378599D01*
X139283889Y-103463513D01*
X139502050Y-103485000D01*
X139897950Y-103485000D01*
X140116111Y-103463513D01*
X140396034Y-103378599D01*
X140654014Y-103240706D01*
X140880134Y-103055134D01*
X140970000Y-102945632D01*
X141059866Y-103055134D01*
X141285986Y-103240706D01*
X141543966Y-103378599D01*
X141823889Y-103463513D01*
X142042050Y-103485000D01*
X142437950Y-103485000D01*
X142656111Y-103463513D01*
X142936034Y-103378599D01*
X143194014Y-103240706D01*
X143420134Y-103055134D01*
X143605706Y-102829014D01*
X143743599Y-102571034D01*
X143828513Y-102291111D01*
X143857185Y-102000000D01*
X143828513Y-101708889D01*
X143743599Y-101428966D01*
X143605706Y-101170986D01*
X143420134Y-100944866D01*
X143194014Y-100759294D01*
X143176626Y-100750000D01*
X143194014Y-100740706D01*
X143420134Y-100555134D01*
X143605706Y-100329014D01*
X143743599Y-100071034D01*
X143828513Y-99791111D01*
X143857185Y-99500000D01*
X143828513Y-99208889D01*
X143743599Y-98928966D01*
X143605706Y-98670986D01*
X143420134Y-98444866D01*
X143194014Y-98259294D01*
X143176626Y-98250000D01*
X143194014Y-98240706D01*
X143420134Y-98055134D01*
X143605706Y-97829014D01*
X143743599Y-97571034D01*
X143828513Y-97291111D01*
X143857185Y-97000000D01*
X143828513Y-96708889D01*
X143743599Y-96428966D01*
X143605706Y-96170986D01*
X143420134Y-95944866D01*
X143194014Y-95759294D01*
X143176626Y-95750000D01*
X143194014Y-95740706D01*
X143420134Y-95555134D01*
X143605706Y-95329014D01*
X143743599Y-95071034D01*
X143828513Y-94791111D01*
X143857185Y-94500000D01*
X143828513Y-94208889D01*
X143743599Y-93928966D01*
X143605706Y-93670986D01*
X143420134Y-93444866D01*
X143194014Y-93259294D01*
X143176626Y-93250000D01*
X143194014Y-93240706D01*
X143420134Y-93055134D01*
X143605706Y-92829014D01*
X143743599Y-92571034D01*
X143828513Y-92291111D01*
X143857185Y-92000000D01*
X143828513Y-91708889D01*
X143743599Y-91428966D01*
X143605706Y-91170986D01*
X143420134Y-90944866D01*
X143194014Y-90759294D01*
X143176626Y-90750000D01*
X143194014Y-90740706D01*
X143420134Y-90555134D01*
X143605706Y-90329014D01*
X143743599Y-90071034D01*
X143828513Y-89791111D01*
X143857185Y-89500000D01*
X143828513Y-89208889D01*
X143743599Y-88928966D01*
X143605706Y-88670986D01*
X143420134Y-88444866D01*
X143356663Y-88392777D01*
X143458386Y-88338405D01*
X143592962Y-88227962D01*
X143703405Y-88093386D01*
X143785472Y-87939850D01*
X143836008Y-87773254D01*
X143853072Y-87600000D01*
X143853072Y-86400000D01*
X143836008Y-86226746D01*
X143785472Y-86060150D01*
X143703405Y-85906614D01*
X143592962Y-85772038D01*
X143458386Y-85661595D01*
X143304850Y-85579528D01*
X143138254Y-85528992D01*
X142965000Y-85511928D01*
X141515000Y-85511928D01*
X141341746Y-85528992D01*
X141175150Y-85579528D01*
X141021614Y-85661595D01*
X140970000Y-85703953D01*
X140918386Y-85661595D01*
X140764850Y-85579528D01*
X140598254Y-85528992D01*
X140425000Y-85511928D01*
X138975000Y-85511928D01*
X138801746Y-85528992D01*
X138635150Y-85579528D01*
X138481614Y-85661595D01*
X138347038Y-85772038D01*
X138236595Y-85906614D01*
X138154528Y-86060150D01*
X138103992Y-86226746D01*
X138086928Y-86400000D01*
X138086928Y-87600000D01*
X138103992Y-87773254D01*
X138154528Y-87939850D01*
X138236595Y-88093386D01*
X138347038Y-88227962D01*
X138481614Y-88338405D01*
X138583337Y-88392777D01*
X138519866Y-88444866D01*
X138334294Y-88670986D01*
X138196401Y-88928966D01*
X138111487Y-89208889D01*
X138082815Y-89500000D01*
X130660000Y-89500000D01*
X130660000Y-84660000D01*
X151340000Y-84660000D01*
X151340001Y-104340000D01*
G37*
%TD.AperFunction*%
M02*
