%TF.GenerationSoftware,KiCad,Pcbnew,5.1.9-73d0e3b20d~88~ubuntu20.04.1*%
%TF.CreationDate,2021-06-02T20:16:19+09:00*%
%TF.ProjectId,BAT-JST7-Straight-Con-PCB,4241542d-4a53-4543-972d-537472616967,rev?*%
%TF.SameCoordinates,Original*%
%TF.FileFunction,Legend,Bot*%
%TF.FilePolarity,Positive*%
%FSLAX46Y46*%
G04 Gerber Fmt 4.6, Leading zero omitted, Abs format (unit mm)*
G04 Created by KiCad (PCBNEW 5.1.9-73d0e3b20d~88~ubuntu20.04.1) date 2021-06-02 20:16:19*
%MOMM*%
%LPD*%
G01*
G04 APERTURE LIST*
%ADD10C,0.300000*%
%ADD11C,0.120000*%
%ADD12C,0.150000*%
G04 APERTURE END LIST*
D10*
X131146428Y-84580714D02*
X131075000Y-84652142D01*
X131003571Y-84795000D01*
X131003571Y-85152142D01*
X131075000Y-85295000D01*
X131146428Y-85366428D01*
X131289285Y-85437857D01*
X131432142Y-85437857D01*
X131646428Y-85366428D01*
X132503571Y-84509285D01*
X132503571Y-85437857D01*
X132503571Y-86866428D02*
X132503571Y-86009285D01*
X132503571Y-86437857D02*
X131003571Y-86437857D01*
X131217857Y-86295000D01*
X131360714Y-86152142D01*
X131432142Y-86009285D01*
X131003571Y-87795000D02*
X131003571Y-87937857D01*
X131075000Y-88080714D01*
X131146428Y-88152142D01*
X131289285Y-88223571D01*
X131575000Y-88295000D01*
X131932142Y-88295000D01*
X132217857Y-88223571D01*
X132360714Y-88152142D01*
X132432142Y-88080714D01*
X132503571Y-87937857D01*
X132503571Y-87795000D01*
X132432142Y-87652142D01*
X132360714Y-87580714D01*
X132217857Y-87509285D01*
X131932142Y-87437857D01*
X131575000Y-87437857D01*
X131289285Y-87509285D01*
X131146428Y-87580714D01*
X131075000Y-87652142D01*
X131003571Y-87795000D01*
X131003571Y-89580714D02*
X131003571Y-89295000D01*
X131075000Y-89152142D01*
X131146428Y-89080714D01*
X131360714Y-88937857D01*
X131646428Y-88866428D01*
X132217857Y-88866428D01*
X132360714Y-88937857D01*
X132432142Y-89009285D01*
X132503571Y-89152142D01*
X132503571Y-89437857D01*
X132432142Y-89580714D01*
X132360714Y-89652142D01*
X132217857Y-89723571D01*
X131860714Y-89723571D01*
X131717857Y-89652142D01*
X131646428Y-89580714D01*
X131575000Y-89437857D01*
X131575000Y-89152142D01*
X131646428Y-89009285D01*
X131717857Y-88937857D01*
X131860714Y-88866428D01*
X131003571Y-90652142D02*
X131003571Y-90795000D01*
X131075000Y-90937857D01*
X131146428Y-91009285D01*
X131289285Y-91080714D01*
X131575000Y-91152142D01*
X131932142Y-91152142D01*
X132217857Y-91080714D01*
X132360714Y-91009285D01*
X132432142Y-90937857D01*
X132503571Y-90795000D01*
X132503571Y-90652142D01*
X132432142Y-90509285D01*
X132360714Y-90437857D01*
X132217857Y-90366428D01*
X131932142Y-90295000D01*
X131575000Y-90295000D01*
X131289285Y-90366428D01*
X131146428Y-90437857D01*
X131075000Y-90509285D01*
X131003571Y-90652142D01*
X131146428Y-91723571D02*
X131075000Y-91795000D01*
X131003571Y-91937857D01*
X131003571Y-92295000D01*
X131075000Y-92437857D01*
X131146428Y-92509285D01*
X131289285Y-92580714D01*
X131432142Y-92580714D01*
X131646428Y-92509285D01*
X132503571Y-91652142D01*
X132503571Y-92580714D01*
X131003571Y-94152142D02*
X132503571Y-94652142D01*
X131003571Y-95152142D01*
X132503571Y-96437857D02*
X132503571Y-95580714D01*
X132503571Y-96009285D02*
X131003571Y-96009285D01*
X131217857Y-95866428D01*
X131360714Y-95723571D01*
X131432142Y-95580714D01*
X132360714Y-97080714D02*
X132432142Y-97152142D01*
X132503571Y-97080714D01*
X132432142Y-97009285D01*
X132360714Y-97080714D01*
X132503571Y-97080714D01*
X131003571Y-98080714D02*
X131003571Y-98223571D01*
X131075000Y-98366428D01*
X131146428Y-98437857D01*
X131289285Y-98509285D01*
X131575000Y-98580714D01*
X131932142Y-98580714D01*
X132217857Y-98509285D01*
X132360714Y-98437857D01*
X132432142Y-98366428D01*
X132503571Y-98223571D01*
X132503571Y-98080714D01*
X132432142Y-97937857D01*
X132360714Y-97866428D01*
X132217857Y-97795000D01*
X131932142Y-97723571D01*
X131575000Y-97723571D01*
X131289285Y-97795000D01*
X131146428Y-97866428D01*
X131075000Y-97937857D01*
X131003571Y-98080714D01*
X132360714Y-99223571D02*
X132432142Y-99295000D01*
X132503571Y-99223571D01*
X132432142Y-99152142D01*
X132360714Y-99223571D01*
X132503571Y-99223571D01*
X131003571Y-100223571D02*
X131003571Y-100366428D01*
X131075000Y-100509285D01*
X131146428Y-100580714D01*
X131289285Y-100652142D01*
X131575000Y-100723571D01*
X131932142Y-100723571D01*
X132217857Y-100652142D01*
X132360714Y-100580714D01*
X132432142Y-100509285D01*
X132503571Y-100366428D01*
X132503571Y-100223571D01*
X132432142Y-100080714D01*
X132360714Y-100009285D01*
X132217857Y-99937857D01*
X131932142Y-99866428D01*
X131575000Y-99866428D01*
X131289285Y-99937857D01*
X131146428Y-100009285D01*
X131075000Y-100080714D01*
X131003571Y-100223571D01*
X134267857Y-85152142D02*
X134339285Y-85366428D01*
X134410714Y-85437857D01*
X134553571Y-85509285D01*
X134767857Y-85509285D01*
X134910714Y-85437857D01*
X134982142Y-85366428D01*
X135053571Y-85223571D01*
X135053571Y-84652142D01*
X133553571Y-84652142D01*
X133553571Y-85152142D01*
X133625000Y-85295000D01*
X133696428Y-85366428D01*
X133839285Y-85437857D01*
X133982142Y-85437857D01*
X134125000Y-85366428D01*
X134196428Y-85295000D01*
X134267857Y-85152142D01*
X134267857Y-84652142D01*
X134625000Y-86080714D02*
X134625000Y-86795000D01*
X135053571Y-85937857D02*
X133553571Y-86437857D01*
X135053571Y-86937857D01*
X133553571Y-87223571D02*
X133553571Y-88080714D01*
X135053571Y-87652142D02*
X133553571Y-87652142D01*
X134482142Y-88580714D02*
X134482142Y-89723571D01*
X133553571Y-90866428D02*
X134625000Y-90866428D01*
X134839285Y-90795000D01*
X134982142Y-90652142D01*
X135053571Y-90437857D01*
X135053571Y-90295000D01*
X134982142Y-91509285D02*
X135053571Y-91723571D01*
X135053571Y-92080714D01*
X134982142Y-92223571D01*
X134910714Y-92295000D01*
X134767857Y-92366428D01*
X134625000Y-92366428D01*
X134482142Y-92295000D01*
X134410714Y-92223571D01*
X134339285Y-92080714D01*
X134267857Y-91795000D01*
X134196428Y-91652142D01*
X134125000Y-91580714D01*
X133982142Y-91509285D01*
X133839285Y-91509285D01*
X133696428Y-91580714D01*
X133625000Y-91652142D01*
X133553571Y-91795000D01*
X133553571Y-92152142D01*
X133625000Y-92366428D01*
X133553571Y-92795000D02*
X133553571Y-93652142D01*
X135053571Y-93223571D02*
X133553571Y-93223571D01*
X133553571Y-94009285D02*
X133553571Y-95009285D01*
X135053571Y-94366428D01*
X133553571Y-95437857D02*
X135053571Y-96437857D01*
X133553571Y-96437857D02*
X135053571Y-95437857D01*
X135053571Y-97009285D02*
X133553571Y-97009285D01*
X134267857Y-97009285D02*
X134267857Y-97866428D01*
X135053571Y-97866428D02*
X133553571Y-97866428D01*
X134482142Y-98580714D02*
X134482142Y-99723571D01*
X134910714Y-101295000D02*
X134982142Y-101223571D01*
X135053571Y-101009285D01*
X135053571Y-100866428D01*
X134982142Y-100652142D01*
X134839285Y-100509285D01*
X134696428Y-100437857D01*
X134410714Y-100366428D01*
X134196428Y-100366428D01*
X133910714Y-100437857D01*
X133767857Y-100509285D01*
X133625000Y-100652142D01*
X133553571Y-100866428D01*
X133553571Y-101009285D01*
X133625000Y-101223571D01*
X133696428Y-101295000D01*
X135053571Y-102152142D02*
X134982142Y-102009285D01*
X134910714Y-101937857D01*
X134767857Y-101866428D01*
X134339285Y-101866428D01*
X134196428Y-101937857D01*
X134125000Y-102009285D01*
X134053571Y-102152142D01*
X134053571Y-102366428D01*
X134125000Y-102509285D01*
X134196428Y-102580714D01*
X134339285Y-102652142D01*
X134767857Y-102652142D01*
X134910714Y-102580714D01*
X134982142Y-102509285D01*
X135053571Y-102366428D01*
X135053571Y-102152142D01*
X134053571Y-103295000D02*
X135053571Y-103295000D01*
X134196428Y-103295000D02*
X134125000Y-103366428D01*
X134053571Y-103509285D01*
X134053571Y-103723571D01*
X134125000Y-103866428D01*
X134267857Y-103937857D01*
X135053571Y-103937857D01*
D11*
%TO.C,J2*%
X140140000Y-87300000D02*
X140740000Y-87000000D01*
X140140000Y-86700000D02*
X140140000Y-87300000D01*
X140740000Y-87000000D02*
X140140000Y-86700000D01*
X145440000Y-102250000D02*
X145440000Y-101750000D01*
X150940000Y-102250000D02*
X145440000Y-102250000D01*
X150940000Y-101750000D02*
X150940000Y-102250000D01*
X145440000Y-101750000D02*
X150940000Y-101750000D01*
X145440000Y-99750000D02*
X145440000Y-99250000D01*
X150940000Y-99750000D02*
X145440000Y-99750000D01*
X150940000Y-99250000D02*
X150940000Y-99750000D01*
X145440000Y-99250000D02*
X150940000Y-99250000D01*
X145440000Y-97250000D02*
X145440000Y-96750000D01*
X150940000Y-97250000D02*
X145440000Y-97250000D01*
X150940000Y-96750000D02*
X150940000Y-97250000D01*
X145440000Y-96750000D02*
X150940000Y-96750000D01*
X145440000Y-94750000D02*
X145440000Y-94250000D01*
X150940000Y-94750000D02*
X145440000Y-94750000D01*
X150940000Y-94250000D02*
X150940000Y-94750000D01*
X145440000Y-94250000D02*
X150940000Y-94250000D01*
X145440000Y-92250000D02*
X145440000Y-91750000D01*
X150940000Y-92250000D02*
X145440000Y-92250000D01*
X150940000Y-91750000D02*
X150940000Y-92250000D01*
X145440000Y-91750000D02*
X150940000Y-91750000D01*
X145440000Y-89750000D02*
X145440000Y-89250000D01*
X150940000Y-89750000D02*
X145440000Y-89750000D01*
X150940000Y-89250000D02*
X150940000Y-89750000D01*
X145440000Y-89250000D02*
X150940000Y-89250000D01*
X145440000Y-87250000D02*
X145440000Y-86750000D01*
X150940000Y-87250000D02*
X145440000Y-87250000D01*
X150940000Y-86750000D02*
X150940000Y-87250000D01*
X145440000Y-86750000D02*
X150940000Y-86750000D01*
X144330000Y-103140000D02*
X144330000Y-94500000D01*
X139830000Y-103140000D02*
X144330000Y-103140000D01*
X139830000Y-104560000D02*
X139830000Y-103140000D01*
X151550000Y-104560000D02*
X139830000Y-104560000D01*
X151550000Y-94500000D02*
X151550000Y-104560000D01*
X144330000Y-85860000D02*
X144330000Y-94500000D01*
X139830000Y-85860000D02*
X144330000Y-85860000D01*
X139830000Y-84440000D02*
X139830000Y-85860000D01*
X151550000Y-84440000D02*
X139830000Y-84440000D01*
X151550000Y-94500000D02*
X151550000Y-84440000D01*
D12*
X136952380Y-90166666D02*
X137666666Y-90166666D01*
X137809523Y-90119047D01*
X137904761Y-90023809D01*
X137952380Y-89880952D01*
X137952380Y-89785714D01*
X137047619Y-90595238D02*
X137000000Y-90642857D01*
X136952380Y-90738095D01*
X136952380Y-90976190D01*
X137000000Y-91071428D01*
X137047619Y-91119047D01*
X137142857Y-91166666D01*
X137238095Y-91166666D01*
X137380952Y-91119047D01*
X137952380Y-90547619D01*
X137952380Y-91166666D01*
%TD*%
M02*
